StickSans_Black.ufo
<glyph name="percent" format="2">
  <advance width="727"/>
  <unicode hex="0025"/>
  <outline>
    <contour>
      <point x="89" y="0" type="line"/>
      <point x="195" y="0" type="line"/>
      <point x="631" y="697" type="line"/>
      <point x="525" y="697" type="line"/>
    </contour>
    <contour>
      <point x="545" y="-11" type="curve" smooth="yes"/>
      <point x="630" y="-11"/>
      <point x="693" y="62"/>
      <point x="693" y="152" type="curve" smooth="yes"/>
      <point x="693" y="244"/>
      <point x="628" y="315"/>
      <point x="542" y="315" type="curve" smooth="yes"/>
      <point x="459" y="315"/>
      <point x="394" y="253"/>
      <point x="394" y="153" type="curve" smooth="yes"/>
      <point x="394" y="50"/>
      <point x="461" y="-11"/>
    </contour>
    <contour>
      <point x="545" y="90" type="curve" smooth="yes"/>
      <point x="519" y="90"/>
      <point x="495" y="106"/>
      <point x="495" y="153" type="curve" smooth="yes"/>
      <point x="495" y="197"/>
      <point x="517" y="214"/>
      <point x="542" y="214" type="curve" smooth="yes"/>
      <point x="570" y="214"/>
      <point x="592" y="193"/>
      <point x="592" y="152" type="curve" smooth="yes"/>
      <point x="592" y="115"/>
      <point x="572" y="90"/>
    </contour>
    <contour>
      <point x="187" y="382" type="curve" smooth="yes"/>
      <point x="272" y="382"/>
      <point x="334" y="455"/>
      <point x="334" y="544" type="curve" smooth="yes"/>
      <point x="334" y="637"/>
      <point x="270" y="708"/>
      <point x="184" y="708" type="curve" smooth="yes"/>
      <point x="102" y="708"/>
      <point x="35" y="647"/>
      <point x="35" y="545" type="curve" smooth="yes"/>
      <point x="35" y="444"/>
      <point x="103" y="382"/>
    </contour>
    <contour>
      <point x="187" y="483" type="curve" smooth="yes"/>
      <point x="159" y="483"/>
      <point x="136" y="500"/>
      <point x="136" y="545" type="curve" smooth="yes"/>
      <point x="136" y="591"/>
      <point x="158" y="607"/>
      <point x="184" y="607" type="curve" smooth="yes"/>
      <point x="211" y="607"/>
      <point x="233" y="586"/>
      <point x="233" y="544" type="curve" smooth="yes"/>
      <point x="233" y="509"/>
      <point x="213" y="483"/>
    </contour>
  </outline>
</glyph>
<glyph name="ampersand" format="2">
  <advance width="710"/>
  <unicode hex="0026"/>
  <outline>
    <contour>
      <point x="279" y="-13" type="curve" smooth="yes"/>
      <point x="461" y="-13"/>
      <point x="609" y="107"/>
      <point x="660" y="361" type="curve"/>
      <point x="526" y="383" type="line"/>
      <point x="481" y="213"/>
      <point x="402" y="115"/>
      <point x="279" y="115" type="curve" smooth="yes"/>
      <point x="226" y="115"/>
      <point x="193" y="137"/>
      <point x="193" y="175" type="curve" smooth="yes"/>
      <point x="193" y="223"/>
      <point x="245" y="254"/>
      <point x="316" y="300" type="curve" smooth="yes"/>
      <point x="405" y="358"/>
      <point x="510" y="426"/>
      <point x="510" y="540" type="curve" smooth="yes"/>
      <point x="510" y="646"/>
      <point x="430" y="706"/>
      <point x="318" y="706" type="curve" smooth="yes"/>
      <point x="212" y="706"/>
      <point x="116" y="645"/>
      <point x="116" y="536" type="curve" smooth="yes"/>
      <point x="116" y="459"/>
      <point x="170" y="402"/>
      <point x="198" y="376" type="curve"/>
      <point x="317" y="437" type="line"/>
      <point x="300" y="454"/>
      <point x="261" y="494"/>
      <point x="261" y="533" type="curve" smooth="yes"/>
      <point x="261" y="570"/>
      <point x="288" y="588"/>
      <point x="319" y="588" type="curve" smooth="yes"/>
      <point x="355" y="588"/>
      <point x="370" y="564"/>
      <point x="370" y="538" type="curve" smooth="yes"/>
      <point x="370" y="491"/>
      <point x="321" y="451"/>
      <point x="245" y="406" type="curve" smooth="yes"/>
      <point x="154" y="352"/>
      <point x="37" y="292"/>
      <point x="37" y="168" type="curve" smooth="yes"/>
      <point x="37" y="47"/>
      <point x="145" y="-13"/>
    </contour>
    <contour>
      <point x="573" y="-40" type="line"/>
      <point x="680" y="55" type="line"/>
      <point x="390" y="376" type="line"/>
      <point x="270" y="303" type="line"/>
    </contour>
  </outline>
</glyph>
<glyph name="parenleft" format="2">
  <advance width="314"/>
  <unicode hex="0028"/>
  <outline>
    <contour>
      <point x="164" y="-204" type="curve"/>
      <point x="299" y="-204" type="line"/>
      <point x="205" y="-87"/>
      <point x="158" y="80"/>
      <point x="158" y="247" type="curve" smooth="yes"/>
      <point x="158" y="413"/>
      <point x="205" y="580"/>
      <point x="299" y="697" type="curve"/>
      <point x="164" y="697" type="line"/>
      <point x="81" y="587"/>
      <point x="40" y="417"/>
      <point x="40" y="246" type="curve" smooth="yes"/>
      <point x="40" y="76"/>
      <point x="81" y="-95"/>
    </contour>
  </outline>
</glyph>
<glyph name="asterisk" format="2">
  <advance width="400"/>
  <unicode hex="002A"/>
  <outline>
    <contour>
      <point x="140" y="373" type="line"/>
      <point x="200" y="489" type="line"/>
      <point x="260" y="373" type="line"/>
      <point x="333" y="428" type="line"/>
      <point x="242" y="519" type="line"/>
      <point x="369" y="539" type="line"/>
      <point x="342" y="629" type="line"/>
      <point x="226" y="570" type="line"/>
      <point x="246" y="697" type="line"/>
      <point x="154" y="697" type="line"/>
      <point x="174" y="570" type="line"/>
      <point x="58" y="629" type="line"/>
      <point x="31" y="539" type="line"/>
      <point x="158" y="519" type="line"/>
      <point x="67" y="428" type="line"/>
    </contour>
  </outline>
</glyph>
<glyph name="plus" format="2">
  <advance width="560"/>
  <unicode hex="002B"/>
  <outline>
    <contour>
      <point x="221" y="0" type="line"/>
      <point x="340" y="0" type="line"/>
      <point x="340" y="188" type="line"/>
      <point x="528" y="188" type="line"/>
      <point x="528" y="306" type="line"/>
      <point x="340" y="306" type="line"/>
      <point x="340" y="494" type="line"/>
      <point x="221" y="494" type="line"/>
      <point x="221" y="306" type="line"/>
      <point x="33" y="306" type="line"/>
      <point x="33" y="188" type="line"/>
      <point x="221" y="188" type="line"/>
    </contour>
  </outline>
</glyph>
<glyph name="two" format="2">
  <advance width="560"/>
  <unicode hex="0032"/>
  <outline>
    <contour>
      <point x="36" y="0" type="line"/>
      <point x="528" y="0" type="line"/>
      <point x="528" y="140" type="line"/>
      <point x="196" y="140" type="line"/>
      <point x="196" y="232"/>
      <point x="503" y="214"/>
      <point x="501" y="476" type="curve" smooth="yes"/>
      <point x="500" y="626"/>
      <point x="406" y="705"/>
      <point x="276" y="705" type="curve" smooth="yes"/>
      <point x="114" y="705"/>
      <point x="27" y="566"/>
      <point x="27" y="444" type="curve"/>
      <point x="175" y="432" type="line"/>
      <point x="179" y="486"/>
      <point x="196" y="559"/>
      <point x="272" y="559" type="curve" smooth="yes"/>
      <point x="329" y="559"/>
      <point x="351" y="519"/>
      <point x="351" y="471" type="curve" smooth="yes"/>
      <point x="351" y="322"/>
      <point x="36" y="369"/>
      <point x="36" y="110" type="curve"/>
    </contour>
  </outline>
</glyph>
<glyph name="three" format="2">
  <advance width="560"/>
  <unicode hex="0033"/>
  <outline>
    <contour>
      <point x="274" y="-10" type="curve" smooth="yes"/>
      <point x="433" y="-10"/>
      <point x="541" y="83"/>
      <point x="541" y="219" type="curve" smooth="yes"/>
      <point x="541" y="294"/>
      <point x="503" y="351"/>
      <point x="433" y="381" type="curve"/>
      <point x="476" y="409"/>
      <point x="500" y="456"/>
      <point x="500" y="512" type="curve" smooth="yes"/>
      <point x="500" y="627"/>
      <point x="409" y="707"/>
      <point x="278" y="707" type="curve" smooth="yes"/>
      <point x="138" y="707"/>
      <point x="37" y="617"/>
      <point x="37" y="493" type="curve"/>
      <point x="186" y="483" type="line"/>
      <point x="187" y="533"/>
      <point x="219" y="563"/>
      <point x="273" y="563" type="curve" smooth="yes"/>
      <point x="321" y="563"/>
      <point x="349" y="539"/>
      <point x="349" y="496" type="curve" smooth="yes"/>
      <point x="349" y="446"/>
      <point x="313" y="422"/>
      <point x="241" y="422" type="curve"/>
      <point x="241" y="304" type="line"/>
      <point x="345" y="304"/>
      <point x="390" y="279"/>
      <point x="390" y="220" type="curve" smooth="yes"/>
      <point x="390" y="165"/>
      <point x="350" y="134"/>
      <point x="279" y="134" type="curve" smooth="yes"/>
      <point x="205" y="134"/>
      <point x="157" y="174"/>
      <point x="157" y="236" type="curve"/>
      <point x="7" y="227" type="line"/>
      <point x="7" y="85"/>
      <point x="114" y="-10"/>
    </contour>
  </outline>
</glyph>
<glyph name="five" format="2">
  <advance width="560"/>
  <unicode hex="0035"/>
  <guideline x="174" y="292" angle="90"/>
  <guideline x="35" y="326" angle="90"/>
  <outline>
    <contour>
      <point x="278" y="-11" type="curve" smooth="yes"/>
      <point x="433" y="-11"/>
      <point x="539" y="114"/>
      <point x="539" y="247" type="curve"/>
      <point x="539" y="373"/>
      <point x="441" y="487"/>
      <point x="295" y="487" type="curve" smooth="yes"/>
      <point x="256" y="487"/>
      <point x="202" y="481"/>
      <point x="150" y="425" type="curve"/>
      <point x="174" y="410" type="line"/>
      <point x="174" y="620" type="line"/>
      <point x="91" y="557" type="line"/>
      <point x="495" y="557" type="line"/>
      <point x="495" y="697" type="line"/>
      <point x="35" y="697" type="line"/>
      <point x="35" y="326" type="line"/>
      <point x="174" y="292" type="line"/>
      <point x="190" y="319"/>
      <point x="220" y="346"/>
      <point x="274" y="346" type="curve" smooth="yes"/>
      <point x="354" y="346"/>
      <point x="379" y="296"/>
      <point x="379" y="247" type="curve" smooth="yes"/>
      <point x="379" y="195"/>
      <point x="353" y="133"/>
      <point x="274" y="133" type="curve" smooth="yes"/>
      <point x="197" y="133"/>
      <point x="165" y="190"/>
      <point x="163" y="231" type="curve"/>
      <point x="15" y="206" type="line"/>
      <point x="30" y="86"/>
      <point x="140" y="-11"/>
    </contour>
  </outline>
</glyph>
<glyph name="colon" format="2">
  <advance width="240"/>
  <unicode hex="003A"/>
  <outline>
    <contour>
      <point x="121" y="301" type="curve" smooth="yes"/>
      <point x="169" y="301"/>
      <point x="206" y="339"/>
      <point x="206" y="387" type="curve" smooth="yes"/>
      <point x="206" y="435"/>
      <point x="169" y="472"/>
      <point x="121" y="472" type="curve" smooth="yes"/>
      <point x="73" y="472"/>
      <point x="36" y="435"/>
      <point x="36" y="387" type="curve" smooth="yes"/>
      <point x="36" y="339"/>
      <point x="74" y="301"/>
    </contour>
    <contour>
      <point x="121" y="-11" type="curve" smooth="yes"/>
      <point x="169" y="-11"/>
      <point x="206" y="27"/>
      <point x="206" y="75" type="curve" smooth="yes"/>
      <point x="206" y="123"/>
      <point x="169" y="160"/>
      <point x="121" y="160" type="curve" smooth="yes"/>
      <point x="73" y="160"/>
      <point x="36" y="123"/>
      <point x="36" y="75" type="curve" smooth="yes"/>
      <point x="36" y="27"/>
      <point x="74" y="-11"/>
    </contour>
  </outline>
</glyph>
<glyph name="semicolon" format="2">
  <advance width="240"/>
  <unicode hex="003B"/>
  <outline>
    <contour>
      <point x="-2" y="-145" type="line"/>
      <point x="98" y="-145" type="line"/>
      <point x="220" y="131" type="line"/>
      <point x="51" y="131" type="line"/>
    </contour>
    <contour>
      <point x="131" y="301" type="curve" smooth="yes"/>
      <point x="179" y="301"/>
      <point x="216" y="339"/>
      <point x="216" y="387" type="curve" smooth="yes"/>
      <point x="216" y="435"/>
      <point x="179" y="472"/>
      <point x="131" y="472" type="curve" smooth="yes"/>
      <point x="83" y="472"/>
      <point x="46" y="435"/>
      <point x="46" y="387" type="curve" smooth="yes"/>
      <point x="46" y="339"/>
      <point x="84" y="301"/>
    </contour>
  </outline>
</glyph>
<glyph name="less" format="2">
  <advance width="560"/>
  <unicode hex="003C"/>
  <outline>
    <contour>
      <point x="536" y="-30" type="line"/>
      <point x="536" y="98" type="line"/>
      <point x="66" y="271" type="line"/>
      <point x="66" y="224" type="line"/>
      <point x="536" y="396" type="line"/>
      <point x="536" y="523" type="line"/>
      <point x="31" y="331" type="line"/>
      <point x="31" y="164" type="line"/>
    </contour>
  </outline>
</glyph>
<glyph name="equal" format="2">
  <advance width="560"/>
  <unicode hex="003D"/>
  <outline>
    <contour>
      <point x="67" y="308" type="line"/>
      <point x="493" y="308" type="line"/>
      <point x="493" y="427" type="line"/>
      <point x="67" y="427" type="line"/>
    </contour>
    <contour>
      <point x="67" y="67" type="line"/>
      <point x="493" y="67" type="line"/>
      <point x="493" y="185" type="line"/>
      <point x="67" y="185" type="line"/>
    </contour>
  </outline>
</glyph>
<glyph name="at" format="2">
  <advance width="873"/>
  <unicode hex="0040"/>
  <outline>
    <contour>
      <point x="438" y="-115" type="curve" smooth="yes"/>
      <point x="515" y="-115"/>
      <point x="592" y="-93"/>
      <point x="655" y="-52" type="curve"/>
      <point x="604" y="44" type="line"/>
      <point x="553" y="11"/>
      <point x="497" y="-6"/>
      <point x="439" y="-6" type="curve" smooth="yes"/>
      <point x="277" y="-6"/>
      <point x="153" y="114"/>
      <point x="153" y="270" type="curve" smooth="yes"/>
      <point x="153" y="445"/>
      <point x="269" y="564"/>
      <point x="439" y="564" type="curve" smooth="yes"/>
      <point x="609" y="564"/>
      <point x="724" y="456"/>
      <point x="724" y="296" type="curve" smooth="yes"/>
      <point x="724" y="227"/>
      <point x="709" y="199"/>
      <point x="674" y="199" type="curve" smooth="yes"/>
      <point x="642" y="199"/>
      <point x="631" y="215"/>
      <point x="631" y="259" type="curve" smooth="yes"/>
      <point x="631" y="455" type="line"/>
      <point x="518" y="455" type="line"/>
      <point x="498" y="405" type="line"/>
      <point x="521" y="391" type="line"/>
      <point x="490" y="442"/>
      <point x="449" y="462"/>
      <point x="394" y="462" type="curve" smooth="yes"/>
      <point x="287" y="462"/>
      <point x="214" y="384"/>
      <point x="214" y="271" type="curve" smooth="yes"/>
      <point x="214" y="159"/>
      <point x="287" y="82"/>
      <point x="394" y="82" type="curve" smooth="yes"/>
      <point x="466" y="82"/>
      <point x="524" y="116"/>
      <point x="547" y="172" type="curve"/>
      <point x="513" y="219" type="line"/>
      <point x="513" y="194" type="line" smooth="yes"/>
      <point x="513" y="134"/>
      <point x="580" y="85"/>
      <point x="663" y="85" type="curve" smooth="yes"/>
      <point x="773" y="85"/>
      <point x="832" y="160"/>
      <point x="832" y="298" type="curve" smooth="yes"/>
      <point x="832" y="516"/>
      <point x="667" y="674"/>
      <point x="438" y="674" type="curve" smooth="yes"/>
      <point x="208" y="674"/>
      <point x="43" y="505"/>
      <point x="43" y="269" type="curve" smooth="yes"/>
      <point x="43" y="53"/>
      <point x="215" y="-115"/>
    </contour>
    <contour>
      <point x="426" y="199" type="curve" smooth="yes"/>
      <point x="384" y="199"/>
      <point x="357" y="227"/>
      <point x="357" y="271" type="curve" smooth="yes"/>
      <point x="357" y="316"/>
      <point x="384" y="345"/>
      <point x="426" y="345" type="curve" smooth="yes"/>
      <point x="467" y="345"/>
      <point x="494" y="316"/>
      <point x="494" y="271" type="curve" smooth="yes"/>
      <point x="494" y="227"/>
      <point x="468" y="199"/>
    </contour>
  </outline>
</glyph>
<glyph name="D" format="2">
  <advance width="668"/>
  <unicode hex="0044"/>
  <anchor x="322" y="0" name="bottom"/>
  <anchor x="182" y="349" name="center"/>
  <anchor x="322" y="697" name="top"/>
  <outline>
    <contour>
      <point x="59" y="0" type="line"/>
      <point x="268" y="0" type="line" smooth="yes"/>
      <point x="506" y="0"/>
      <point x="636" y="121"/>
      <point x="636" y="343" type="curve" smooth="yes"/>
      <point x="636" y="569"/>
      <point x="502" y="697"/>
      <point x="269" y="697" type="curve" smooth="yes"/>
      <point x="59" y="697" type="line"/>
    </contour>
    <contour>
      <point x="216" y="144" type="line"/>
      <point x="216" y="553" type="line"/>
      <point x="266" y="553" type="line" smooth="yes"/>
      <point x="397" y="553"/>
      <point x="478" y="511"/>
      <point x="478" y="349" type="curve" smooth="yes"/>
      <point x="478" y="181"/>
      <point x="394" y="144"/>
      <point x="252" y="144" type="curve" smooth="yes"/>
    </contour>
  </outline>
</glyph>
<glyph name="E" format="2">
  <advance width="573"/>
  <unicode hex="0045"/>
  <anchor x="293" y="0" name="bottom"/>
  <anchor x="527" y="0" name="ogonek"/>
  <anchor x="293" y="697" name="top"/>
  <anchor x="2" y="697" name="topleft"/>
  <outline>
    <contour>
      <point x="59" y="0" type="line"/>
      <point x="527" y="0" type="line"/>
      <point x="527" y="140" type="line"/>
      <point x="216" y="140" type="line"/>
      <point x="216" y="289" type="line"/>
      <point x="512" y="289" type="line"/>
      <point x="512" y="429" type="line"/>
      <point x="216" y="429" type="line"/>
      <point x="216" y="557" type="line"/>
      <point x="527" y="557" type="line"/>
      <point x="527" y="697" type="line"/>
      <point x="59" y="697" type="line"/>
    </contour>
  </outline>
</glyph>
<glyph name="F" format="2">
  <advance width="553"/>
  <unicode hex="0046"/>
  <anchor x="282" y="0" name="bottom"/>
  <anchor x="282" y="697" name="top"/>
  <outline>
    <contour>
      <point x="59" y="0" type="line"/>
      <point x="216" y="0" type="line"/>
      <point x="216" y="289" type="line"/>
      <point x="490" y="289" type="line"/>
      <point x="490" y="429" type="line"/>
      <point x="216" y="429" type="line"/>
      <point x="216" y="557" type="line"/>
      <point x="531" y="557" type="line"/>
      <point x="531" y="697" type="line"/>
      <point x="59" y="697" type="line"/>
    </contour>
  </outline>
</glyph>
<glyph name="G" format="2">
  <advance width="738"/>
  <unicode hex="0047"/>
  <anchor x="373" y="0" name="bottom"/>
  <anchor x="373" y="697" name="top"/>
  <outline>
    <contour>
      <point x="363" y="-18" type="curve" smooth="yes"/>
      <point x="534.2525150674353" y="-18"/>
      <point x="690" y="105"/>
      <point x="690" y="247" type="curve"/>
      <point x="690" y="387" type="line"/>
      <point x="383" y="387" type="line"/>
      <point x="383" y="247" type="line"/>
      <point x="586" y="247" type="line"/>
      <point x="551" y="357" type="line"/>
      <point x="551" y="324" type="line" smooth="yes"/>
      <point x="551" y="168"/>
      <point x="452" y="132"/>
      <point x="373" y="132" type="curve" smooth="yes"/>
      <point x="261" y="132"/>
      <point x="189" y="213"/>
      <point x="189" y="349" type="curve" smooth="yes"/>
      <point x="189" y="484"/>
      <point x="261" y="565"/>
      <point x="373" y="565" type="curve" smooth="yes"/>
      <point x="455" y="565"/>
      <point x="515" y="521"/>
      <point x="542" y="446" type="curve"/>
      <point x="690" y="499" type="line"/>
      <point x="642" y="633"/>
      <point x="526" y="715"/>
      <point x="373" y="715" type="curve" smooth="yes"/>
      <point x="171" y="715"/>
      <point x="32" y="568"/>
      <point x="32" y="349" type="curve" smooth="yes"/>
      <point x="32" y="129"/>
      <point x="171" y="-18"/>
    </contour>
  </outline>
</glyph>
<glyph name="L" format="2">
  <advance width="510"/>
  <unicode hex="004C"/>
  <anchor x="281" y="0" name="bottom"/>
  <anchor x="156" y="323" name="center"/>
  <anchor x="138" y="697" name="top"/>
  <anchor x="432" y="493" name="topright"/>
  <outline>
    <contour>
      <point x="59" y="0" type="line"/>
      <point x="502" y="0" type="line"/>
      <point x="502" y="140" type="line"/>
      <point x="216" y="140" type="line"/>
      <point x="216" y="697" type="line"/>
      <point x="59" y="697" type="line"/>
    </contour>
  </outline>
</glyph>
<glyph name="N" format="2">
  <advance width="698"/>
  <unicode hex="004E"/>
  <anchor x="350" y="0" name="bottom"/>
  <anchor x="350" y="697" name="top"/>
  <outline>
    <contour>
      <point x="59" y="0" type="line"/>
      <point x="216" y="0" type="line"/>
      <point x="216" y="492" type="line"/>
      <point x="176" y="492" type="line"/>
      <point x="478" y="0" type="line"/>
      <point x="639" y="0" type="line"/>
      <point x="639" y="697" type="line"/>
      <point x="482" y="697" type="line"/>
      <point x="482" y="206" type="line"/>
      <point x="523" y="206" type="line"/>
      <point x="219" y="697" type="line"/>
      <point x="59" y="697" type="line"/>
    </contour>
  </outline>
</glyph>
<glyph name="O" format="2">
  <advance width="747"/>
  <unicode hex="004F"/>
  <anchor x="374" y="0" name="bottom"/>
  <anchor x="374" y="349" name="center"/>
  <anchor x="461" y="0" name="ogonek"/>
  <anchor x="373" y="697" name="top"/>
  <anchor x="23" y="697" name="topleft"/>
  <anchor x="684" y="493" name="topright"/>
  <outline>
    <contour>
      <point x="373" y="-18" type="curve" smooth="yes"/>
      <point x="575" y="-18"/>
      <point x="715" y="128"/>
      <point x="715" y="348" type="curve" smooth="yes"/>
      <point x="715" y="569"/>
      <point x="577" y="715"/>
      <point x="373" y="715" type="curve" smooth="yes"/>
      <point x="171" y="715"/>
      <point x="32" y="568"/>
      <point x="32" y="348" type="curve" smooth="yes"/>
      <point x="32" y="129"/>
      <point x="171" y="-18"/>
    </contour>
    <contour>
      <point x="373" y="132" type="curve" smooth="yes"/>
      <point x="261" y="132"/>
      <point x="189" y="213"/>
      <point x="189" y="348" type="curve" smooth="yes"/>
      <point x="189" y="484"/>
      <point x="261" y="565"/>
      <point x="373" y="565" type="curve" smooth="yes"/>
      <point x="486" y="565"/>
      <point x="557" y="482"/>
      <point x="557" y="348" type="curve" smooth="yes"/>
      <point x="557" y="215"/>
      <point x="486" y="132"/>
    </contour>
  </outline>
</glyph>
<glyph name="P" format="2">
  <advance width="567"/>
  <unicode hex="0050"/>
  <anchor x="268" y="0" name="bottom"/>
  <anchor x="268" y="697" name="top"/>
  <outline>
    <contour>
      <point x="59" y="0" type="line"/>
      <point x="215" y="0" type="line"/>
      <point x="215" y="280" type="line"/>
      <point x="304" y="280" type="line" smooth="yes"/>
      <point x="463" y="280"/>
      <point x="546" y="353"/>
      <point x="546" y="492" type="curve" smooth="yes"/>
      <point x="546" y="630"/>
      <point x="465" y="697"/>
      <point x="304" y="697" type="curve" smooth="yes"/>
      <point x="59" y="697" type="line"/>
    </contour>
    <contour>
      <point x="215" y="420" type="line"/>
      <point x="215" y="557" type="line"/>
      <point x="288" y="557" type="line" smooth="yes"/>
      <point x="357" y="557"/>
      <point x="389" y="543"/>
      <point x="389" y="490" type="curve" smooth="yes"/>
      <point x="389" y="434"/>
      <point x="352" y="420"/>
      <point x="288" y="420" type="curve" smooth="yes"/>
    </contour>
  </outline>
</glyph>
<glyph name="Q" format="2">
  <advance width="793"/>
  <unicode hex="0051"/>
  <anchor x="390" y="0" name="bottom"/>
  <anchor x="390" y="697" name="top"/>
  <outline>
    <contour>
      <point x="373" y="-18" type="curve" smooth="yes"/>
      <point x="575" y="-18"/>
      <point x="715" y="128"/>
      <point x="715" y="348" type="curve" smooth="yes"/>
      <point x="715" y="569"/>
      <point x="577" y="715"/>
      <point x="373" y="715" type="curve" smooth="yes"/>
      <point x="171" y="715"/>
      <point x="32" y="568"/>
      <point x="32" y="348" type="curve" smooth="yes"/>
      <point x="32" y="128"/>
      <point x="172" y="-18"/>
    </contour>
    <contour>
      <point x="667" y="-62" type="line"/>
      <point x="761" y="29" type="line"/>
      <point x="464" y="318" type="line"/>
      <point x="373" y="221" type="line"/>
    </contour>
    <contour>
      <point x="373" y="132" type="curve" smooth="yes"/>
      <point x="261" y="132"/>
      <point x="189" y="213"/>
      <point x="189" y="348" type="curve" smooth="yes"/>
      <point x="189" y="484"/>
      <point x="261" y="565"/>
      <point x="373" y="565" type="curve" smooth="yes"/>
      <point x="486" y="565"/>
      <point x="557" y="482"/>
      <point x="557" y="348" type="curve" smooth="yes"/>
      <point x="557" y="215"/>
      <point x="486" y="132"/>
    </contour>
  </outline>
</glyph>
<glyph name="R" format="2">
  <advance width="621"/>
  <unicode hex="0052"/>
  <anchor x="294" y="0" name="bottom"/>
  <anchor x="294" y="697" name="top"/>
  <outline>
    <contour>
      <point x="59" y="0" type="line"/>
      <point x="216" y="0" type="line"/>
      <point x="216" y="218" type="line"/>
      <point x="230" y="218" type="line" smooth="yes"/>
      <point x="250" y="218"/>
      <point x="288" y="218"/>
      <point x="325" y="218" type="curve"/>
      <point x="465" y="225"/>
      <point x="546" y="324"/>
      <point x="546" y="460" type="curve" smooth="yes"/>
      <point x="546" y="584"/>
      <point x="480" y="697"/>
      <point x="304" y="697" type="curve" smooth="yes"/>
      <point x="59" y="697" type="line"/>
    </contour>
    <contour>
      <point x="407" y="0" type="line"/>
      <point x="589" y="0" type="line"/>
      <point x="397" y="254" type="line"/>
      <point x="236" y="235" type="line"/>
    </contour>
    <contour>
      <point x="216" y="358" type="line"/>
      <point x="216" y="557" type="line"/>
      <point x="288" y="557" type="line" smooth="yes"/>
      <point x="337" y="557"/>
      <point x="389" y="522"/>
      <point x="389" y="458" type="curve" smooth="yes"/>
      <point x="389" y="393"/>
      <point x="338" y="358"/>
      <point x="288" y="358" type="curve" smooth="yes"/>
    </contour>
  </outline>
</glyph>
<glyph name="S" format="2">
  <advance width="583"/>
  <unicode hex="0053"/>
  <anchor x="291" y="0" name="bottom"/>
  <anchor x="291" y="697" name="top"/>
  <outline>
    <contour>
      <point x="301" y="-15" type="curve" smooth="yes"/>
      <point x="453" y="-15"/>
      <point x="553" y="76"/>
      <point x="553" y="204" type="curve" smooth="yes"/>
      <point x="553" y="313"/>
      <point x="488" y="373"/>
      <point x="355" y="423" type="curve" smooth="yes"/>
      <point x="254" y="461"/>
      <point x="228" y="486"/>
      <point x="228" y="520" type="curve" smooth="yes"/>
      <point x="228" y="553"/>
      <point x="258" y="576"/>
      <point x="294" y="576" type="curve" smooth="yes"/>
      <point x="334" y="576"/>
      <point x="368" y="550"/>
      <point x="394" y="504" type="curve"/>
      <point x="519" y="580" type="line"/>
      <point x="474" y="670"/>
      <point x="396" y="715"/>
      <point x="299" y="715" type="curve" smooth="yes"/>
      <point x="162" y="715"/>
      <point x="71" y="633"/>
      <point x="71" y="517" type="curve" smooth="yes"/>
      <point x="71" y="410"/>
      <point x="131" y="346"/>
      <point x="274" y="291" type="curve" smooth="yes"/>
      <point x="363" y="257"/>
      <point x="397" y="234"/>
      <point x="397" y="194" type="curve" smooth="yes"/>
      <point x="397" y="149"/>
      <point x="357" y="124"/>
      <point x="306" y="124" type="curve" smooth="yes"/>
      <point x="236" y="124"/>
      <point x="188" y="163"/>
      <point x="174" y="243" type="curve"/>
      <point x="21" y="205" type="line"/>
      <point x="42" y="72"/>
      <point x="146" y="-15"/>
    </contour>
  </outline>
</glyph>
<glyph name="T" format="2">
  <advance width="582"/>
  <unicode hex="0054"/>
  <anchor x="291" y="0" name="bottom"/>
  <anchor x="291" y="349" name="center"/>
  <anchor x="291" y="697" name="top"/>
  <outline>
    <contour>
      <point x="212" y="0" type="line"/>
      <point x="371" y="0" type="line"/>
      <point x="371" y="557" type="line"/>
      <point x="574" y="557" type="line"/>
      <point x="574" y="697" type="line"/>
      <point x="8" y="697" type="line"/>
      <point x="8" y="557" type="line"/>
      <point x="212" y="557" type="line"/>
    </contour>
  </outline>
</glyph>
<glyph name="V" format="2">
  <advance width="682"/>
  <unicode hex="0056"/>
  <anchor x="342" y="0" name="bottom"/>
  <anchor x="342" y="697" name="top"/>
  <outline>
    <contour>
      <point x="284" y="0" type="line"/>
      <point x="399" y="0" type="line"/>
      <point x="679" y="697" type="line"/>
      <point x="505" y="697" type="line"/>
      <point x="317" y="193" type="line"/>
      <point x="368" y="193" type="line"/>
      <point x="176" y="697" type="line"/>
      <point x="3" y="697" type="line"/>
    </contour>
  </outline>
</glyph>
<glyph name="W" format="2">
  <advance width="994"/>
  <unicode hex="0057"/>
  <anchor x="497" y="0" name="bottom"/>
  <anchor x="497" y="697" name="top"/>
  <outline>
    <contour>
      <point x="220" y="0" type="line"/>
      <point x="371" y="0" type="line"/>
      <point x="510" y="468" type="line"/>
      <point x="484" y="468" type="line"/>
      <point x="623" y="0" type="line"/>
      <point x="774" y="0" type="line"/>
      <point x="987" y="697" type="line"/>
      <point x="823" y="697" type="line"/>
      <point x="689" y="242" type="line"/>
      <point x="574" y="655" type="line"/>
      <point x="420" y="655" type="line"/>
      <point x="305" y="242" type="line"/>
      <point x="171" y="697" type="line"/>
      <point x="7" y="697" type="line"/>
    </contour>
  </outline>
</glyph>
<glyph name="X" format="2">
  <advance width="689"/>
  <unicode hex="0058"/>
  <anchor x="345" y="0" name="bottom"/>
  <anchor x="345" y="697" name="top"/>
  <outline>
    <contour>
      <point x="9" y="0" type="line"/>
      <point x="197" y="0" type="line"/>
      <point x="344" y="233" type="line"/>
      <point x="493" y="0" type="line"/>
      <point x="681" y="0" type="line"/>
      <point x="453" y="346" type="line"/>
      <point x="681" y="697" type="line"/>
      <point x="494" y="697" type="line"/>
      <point x="345" y="455" type="line"/>
      <point x="196" y="697" type="line"/>
      <point x="8" y="697" type="line"/>
      <point x="236" y="346" type="line"/>
    </contour>
  </outline>
</glyph>
<glyph name="Y" format="2">
  <advance width="640"/>
  <unicode hex="0059"/>
  <anchor x="321" y="0" name="bottom"/>
  <anchor x="321" y="697" name="top"/>
  <anchor x="22" y="697" name="topleft"/>
  <outline>
    <contour>
      <point x="243" y="0" type="line"/>
      <point x="400" y="0" type="line"/>
      <point x="400" y="275" type="line"/>
      <point x="641" y="697" type="line"/>
      <point x="463" y="697" type="line"/>
      <point x="318" y="431" type="line"/>
      <point x="178" y="697" type="line"/>
      <point x="-2" y="697" type="line"/>
      <point x="243" y="275" type="line"/>
    </contour>
  </outline>
</glyph>
<glyph name="Z" format="2">
  <advance width="621"/>
  <unicode hex="005A"/>
  <anchor x="314" y="0" name="bottom"/>
  <anchor x="314" y="349" name="center"/>
  <anchor x="314" y="697" name="top"/>
  <outline>
    <contour>
      <point x="25" y="0" type="line"/>
      <point x="595" y="0" type="line"/>
      <point x="595" y="140" type="line"/>
      <point x="176" y="140" type="line"/>
      <point x="198" y="108" type="line"/>
      <point x="581" y="569" type="line"/>
      <point x="581" y="697" type="line"/>
      <point x="48" y="697" type="line"/>
      <point x="48" y="557" type="line"/>
      <point x="446" y="557" type="line"/>
      <point x="422" y="607" type="line"/>
      <point x="25" y="127" type="line"/>
    </contour>
  </outline>
</glyph>
<glyph name="bracketleft" format="2">
  <advance width="327"/>
  <unicode hex="005B"/>
  <outline>
    <contour>
      <point x="73" y="-249" type="line"/>
      <point x="302" y="-249" type="line"/>
      <point x="302" y="-149" type="line"/>
      <point x="195" y="-149" type="line"/>
      <point x="195" y="642" type="line"/>
      <point x="302" y="642" type="line"/>
      <point x="302" y="742" type="line"/>
      <point x="73" y="742" type="line"/>
    </contour>
  </outline>
</glyph>
<glyph name="asciicircum" format="2">
  <advance width="677"/>
  <unicode hex="005E"/>
  <outline>
    <contour>
      <point x="30" y="197" type="line"/>
      <point x="190" y="197" type="line"/>
      <point x="360" y="626" type="line"/>
      <point x="316" y="626" type="line"/>
      <point x="488" y="197" type="line"/>
      <point x="647" y="197" type="line"/>
      <point x="433" y="697" type="line"/>
      <point x="243" y="697" type="line"/>
    </contour>
  </outline>
</glyph>
<glyph name="c" format="2">
  <advance width="525"/>
  <unicode hex="0063"/>
  <anchor x="289" y="0" name="bottom"/>
  <anchor x="261" y="493" name="top"/>
  <outline>
    <contour>
      <point x="279" y="-11" type="curve" smooth="yes"/>
      <point x="383" y="-11"/>
      <point x="462" y="38"/>
      <point x="499" y="139" type="curve"/>
      <point x="368" y="191" type="line"/>
      <point x="354" y="150"/>
      <point x="329" y="120"/>
      <point x="279" y="120" type="curve" smooth="yes"/>
      <point x="209" y="120"/>
      <point x="182" y="184"/>
      <point x="182" y="247" type="curve" smooth="yes"/>
      <point x="182" y="309"/>
      <point x="209" y="373"/>
      <point x="279" y="373" type="curve" smooth="yes"/>
      <point x="329" y="373"/>
      <point x="354" y="343"/>
      <point x="368" y="302" type="curve"/>
      <point x="499" y="354" type="line"/>
      <point x="462" y="455"/>
      <point x="383" y="504"/>
      <point x="279" y="504" type="curve" smooth="yes"/>
      <point x="111" y="504"/>
      <point x="31" y="375"/>
      <point x="31" y="247" type="curve" smooth="yes"/>
      <point x="31" y="118"/>
      <point x="111" y="-11"/>
    </contour>
  </outline>
</glyph>
<glyph name="d" format="2">
  <advance width="566"/>
  <unicode hex="0064"/>
  <anchor x="291" y="0" name="bottom"/>
  <anchor x="412" y="589" name="center"/>
  <anchor x="437" y="697" name="top"/>
  <anchor x="649" y="493" name="topright"/>
  <outline>
    <contour>
      <point x="232" y="-11" type="curve" smooth="yes"/>
      <point x="292" y="-11"/>
      <point x="368" y="13"/>
      <point x="393" y="152" type="curve"/>
      <point x="362" y="122" type="line"/>
      <point x="362" y="0" type="line"/>
      <point x="512" y="0" type="line"/>
      <point x="512" y="697" type="line"/>
      <point x="362" y="697" type="line"/>
      <point x="362" y="369" type="line"/>
      <point x="389" y="347" type="line"/>
      <point x="373" y="464"/>
      <point x="301" y="504"/>
      <point x="232" y="504" type="curve" smooth="yes"/>
      <point x="121" y="504"/>
      <point x="31" y="412"/>
      <point x="31" y="247" type="curve" smooth="yes"/>
      <point x="31" y="99"/>
      <point x="104" y="-11"/>
    </contour>
    <contour>
      <point x="279" y="127" type="curve" smooth="yes"/>
      <point x="218" y="127"/>
      <point x="182" y="171"/>
      <point x="182" y="247" type="curve" smooth="yes"/>
      <point x="182" y="322"/>
      <point x="218" y="366"/>
      <point x="279" y="366" type="curve" smooth="yes"/>
      <point x="340" y="366"/>
      <point x="376" y="321"/>
      <point x="376" y="247" type="curve" smooth="yes"/>
      <point x="376" y="172"/>
      <point x="340" y="127"/>
    </contour>
  </outline>
</glyph>
<glyph name="f" format="2">
  <advance width="357"/>
  <unicode hex="0066"/>
  <anchor x="166" y="0" name="bottom"/>
  <anchor x="164" y="697" name="top"/>
  <outline>
    <contour>
      <point x="91" y="0" type="line"/>
      <point x="242" y="0" type="line"/>
      <point x="242" y="376" type="line"/>
      <point x="340" y="376" type="line"/>
      <point x="340" y="493" type="line"/>
      <point x="242" y="493" type="line"/>
      <point x="242" y="536" type="line" smooth="yes"/>
      <point x="242" y="562"/>
      <point x="248" y="583"/>
      <point x="273" y="583" type="curve" smooth="yes"/>
      <point x="286" y="583"/>
      <point x="299" y="577"/>
      <point x="311" y="571" type="curve"/>
      <point x="359" y="686" type="line"/>
      <point x="329" y="699"/>
      <point x="300" y="708"/>
      <point x="256" y="708" type="curve" smooth="yes"/>
      <point x="169" y="708"/>
      <point x="92" y="674"/>
      <point x="92" y="537" type="curve" smooth="yes"/>
      <point x="92" y="493" type="line"/>
      <point x="10" y="493" type="line"/>
      <point x="10" y="376" type="line"/>
      <point x="91" y="376" type="line"/>
    </contour>
  </outline>
</glyph>
<glyph name="k" format="2">
  <advance width="578"/>
  <unicode hex="006B"/>
  <anchor x="295" y="0" name="bottom"/>
  <anchor x="130" y="697" name="top"/>
  <outline>
    <contour>
      <point x="386" y="0" type="line"/>
      <point x="565" y="0" type="line"/>
      <point x="368" y="307" type="line"/>
      <point x="548" y="493" type="line"/>
      <point x="357" y="493" type="line"/>
      <point x="194" y="318" type="line"/>
      <point x="194" y="131" type="line"/>
      <point x="258" y="206" type="line"/>
    </contour>
    <contour>
      <point x="54" y="0" type="line"/>
      <point x="205" y="0" type="line"/>
      <point x="205" y="697" type="line"/>
      <point x="54" y="697" type="line"/>
    </contour>
  </outline>
</glyph>
<glyph name="m" format="2">
  <advance width="853"/>
  <unicode hex="006D"/>
  <anchor x="427" y="0" name="bottom"/>
  <anchor x="427" y="493" name="top"/>
  <outline>
    <contour>
      <point x="54" y="0" type="line"/>
      <point x="205" y="0" type="line"/>
      <point x="205" y="239" type="line" smooth="yes"/>
      <point x="205" y="330"/>
      <point x="231" y="373"/>
      <point x="288" y="373" type="curve" smooth="yes"/>
      <point x="329" y="373"/>
      <point x="354" y="342"/>
      <point x="354" y="281" type="curve" smooth="yes"/>
      <point x="354" y="0" type="line"/>
      <point x="504" y="0" type="line"/>
      <point x="504" y="239" type="line" smooth="yes"/>
      <point x="504" y="331"/>
      <point x="529" y="373"/>
      <point x="583" y="373" type="curve" smooth="yes"/>
      <point x="627" y="373"/>
      <point x="653" y="345"/>
      <point x="653" y="281" type="curve" smooth="yes"/>
      <point x="653" y="0" type="line"/>
      <point x="804" y="0" type="line"/>
      <point x="804" y="318" type="line" smooth="yes"/>
      <point x="804" y="407"/>
      <point x="748" y="504"/>
      <point x="619" y="504" type="curve" smooth="yes"/>
      <point x="545" y="504"/>
      <point x="453" y="464"/>
      <point x="423" y="299" type="curve"/>
      <point x="514" y="341" type="line"/>
      <point x="491" y="475"/>
      <point x="408" y="504"/>
      <point x="340" y="504" type="curve" smooth="yes"/>
      <point x="277" y="504"/>
      <point x="189" y="476"/>
      <point x="171" y="329" type="curve"/>
      <point x="205" y="364" type="line"/>
      <point x="205" y="493" type="line"/>
      <point x="54" y="493" type="line"/>
    </contour>
  </outline>
</glyph>
<glyph name="p" format="2">
  <advance width="566"/>
  <unicode hex="0070"/>
  <guideline x="391" y="-204" angle="0" name=""/>
  <anchor x="129" y="-204" name="bottom"/>
  <anchor x="-83" y="0" name="bottomleft"/>
  <anchor x="154" y="-96" name="center"/>
  <anchor x="275" y="493" name="top"/>
  <outline>
    <contour>
      <point x="54" y="-204" type="line"/>
      <point x="204" y="-204" type="line"/>
      <point x="204" y="124" type="line"/>
      <point x="177" y="146" type="line"/>
      <point x="193" y="29"/>
      <point x="265" y="-11"/>
      <point x="334" y="-11" type="curve" smooth="yes"/>
      <point x="445" y="-11"/>
      <point x="535" y="81"/>
      <point x="535" y="246" type="curve" smooth="yes"/>
      <point x="535" y="394"/>
      <point x="462" y="504"/>
      <point x="334" y="504" type="curve" smooth="yes"/>
      <point x="274" y="504"/>
      <point x="198" y="480"/>
      <point x="173" y="341" type="curve"/>
      <point x="204" y="371" type="line"/>
      <point x="204" y="493" type="line"/>
      <point x="54" y="493" type="line"/>
    </contour>
    <contour>
      <point x="287" y="127" type="curve" smooth="yes"/>
      <point x="226" y="127"/>
      <point x="190" y="172"/>
      <point x="190" y="246" type="curve" smooth="yes"/>
      <point x="190" y="321"/>
      <point x="226" y="366"/>
      <point x="287" y="366" type="curve" smooth="yes"/>
      <point x="348" y="366"/>
      <point x="384" y="322"/>
      <point x="384" y="246" type="curve" smooth="yes"/>
      <point x="384" y="171"/>
      <point x="348" y="127"/>
    </contour>
  </outline>
</glyph>
<glyph name="r" format="2">
  <advance width="439"/>
  <unicode hex="0072"/>
  <anchor x="200" y="0" name="bottom"/>
  <anchor x="200" y="493" name="top"/>
  <outline>
    <contour>
      <point x="54" y="0" type="line"/>
      <point x="205" y="0" type="line"/>
      <point x="205" y="199" type="line" smooth="yes"/>
      <point x="205" y="255"/>
      <point x="208" y="279"/>
      <point x="215" y="298" type="curve" smooth="yes"/>
      <point x="229" y="336"/>
      <point x="258" y="354"/>
      <point x="293" y="354" type="curve" smooth="yes"/>
      <point x="317" y="354"/>
      <point x="343" y="345"/>
      <point x="357" y="336" type="curve"/>
      <point x="429" y="472" type="line"/>
      <point x="394" y="495"/>
      <point x="364" y="504"/>
      <point x="330" y="504" type="curve" smooth="yes"/>
      <point x="259" y="504"/>
      <point x="190" y="442"/>
      <point x="188" y="358" type="curve"/>
      <point x="206" y="358" type="line"/>
      <point x="206" y="493" type="line"/>
      <point x="54" y="493" type="line"/>
    </contour>
  </outline>
</glyph>
<glyph name="t" format="2">
  <advance width="381"/>
  <unicode hex="0074"/>
  <anchor x="236" y="0" name="bottom"/>
  <anchor x="190" y="248" name="center"/>
  <anchor x="202" y="493" name="top"/>
  <anchor x="376" y="562" name="topright"/>
  <outline>
    <contour>
      <point x="257" y="-11" type="curve" smooth="yes"/>
      <point x="289" y="-11"/>
      <point x="318" y="-6"/>
      <point x="347" y="5" type="curve"/>
      <point x="347" y="120" type="line"/>
      <point x="328" y="115"/>
      <point x="312" y="112"/>
      <point x="299" y="112" type="curve" smooth="yes"/>
      <point x="255" y="112"/>
      <point x="244" y="141"/>
      <point x="244" y="200" type="curve" smooth="yes"/>
      <point x="244" y="677" type="line"/>
      <point x="92" y="677" type="line"/>
      <point x="92" y="157" type="line" smooth="yes"/>
      <point x="92" y="31"/>
      <point x="172" y="-11"/>
    </contour>
    <contour>
      <point x="10" y="376" type="line"/>
      <point x="347" y="376" type="line"/>
      <point x="347" y="493" type="line"/>
      <point x="10" y="493" type="line"/>
    </contour>
  </outline>
</glyph>
<glyph name="u" format="2">
  <advance width="576"/>
  <unicode hex="0075"/>
  <anchor x="290" y="0" name="bottom"/>
  <anchor x="521" y="0" name="ogonek"/>
  <anchor x="284" y="493" name="top"/>
  <anchor x="505" y="396" name="topright"/>
  <outline>
    <contour>
      <point x="233" y="-11" type="curve" smooth="yes"/>
      <point x="296" y="-11"/>
      <point x="353" y="13"/>
      <point x="385" y="91" type="curve"/>
      <point x="370" y="108" type="line"/>
      <point x="370" y="0" type="line"/>
      <point x="521" y="0" type="line"/>
      <point x="521" y="493" type="line"/>
      <point x="370" y="493" type="line"/>
      <point x="370" y="330" type="line" smooth="yes"/>
      <point x="370" y="213"/>
      <point x="370" y="120"/>
      <point x="279" y="120" type="curve" smooth="yes"/>
      <point x="206" y="120"/>
      <point x="199" y="171"/>
      <point x="199" y="219" type="curve" smooth="yes"/>
      <point x="199" y="493" type="line"/>
      <point x="48" y="493" type="line"/>
      <point x="48" y="188" type="line" smooth="yes"/>
      <point x="48" y="72"/>
      <point x="102" y="-11"/>
    </contour>
  </outline>
</glyph>
<glyph name="z" format="2">
  <advance width="470"/>
  <unicode hex="007A"/>
  <anchor x="236" y="0" name="bottom"/>
  <anchor x="236" y="247" name="center"/>
  <anchor x="236" y="493" name="top"/>
  <outline>
    <contour>
      <point x="33" y="0" type="line"/>
      <point x="434" y="0" type="line"/>
      <point x="434" y="126" type="line"/>
      <point x="175" y="126" type="line"/>
      <point x="190" y="76" type="line"/>
      <point x="433" y="388" type="line"/>
      <point x="433" y="493" type="line"/>
      <point x="42" y="493" type="line"/>
      <point x="42" y="367" type="line"/>
      <point x="295" y="367" type="line"/>
      <point x="281" y="409" type="line"/>
      <point x="33" y="98" type="line"/>
    </contour>
  </outline>
</glyph>
<glyph name="braceleft" format="2">
  <advance width="312"/>
  <unicode hex="007B"/>
  <outline>
    <contour>
      <point x="196" y="-249" type="curve" smooth="yes"/>
      <point x="288" y="-249" type="line"/>
      <point x="288" y="-154" type="line"/>
      <point x="248" y="-154" type="line" smooth="yes"/>
      <point x="216" y="-154"/>
      <point x="212" y="-123"/>
      <point x="212" y="-98" type="curve" smooth="yes"/>
      <point x="212" y="116" type="line" smooth="yes"/>
      <point x="212" y="190"/>
      <point x="182" y="220"/>
      <point x="138" y="244" type="curve"/>
      <point x="138" y="249" type="line"/>
      <point x="182" y="273"/>
      <point x="212" y="303"/>
      <point x="212" y="377" type="curve" smooth="yes"/>
      <point x="212" y="591" type="line" smooth="yes"/>
      <point x="212" y="616"/>
      <point x="216" y="647"/>
      <point x="248" y="647" type="curve" smooth="yes"/>
      <point x="288" y="647" type="line"/>
      <point x="288" y="742" type="line"/>
      <point x="196" y="742" type="line" smooth="yes"/>
      <point x="125" y="742"/>
      <point x="84" y="685"/>
      <point x="84" y="594" type="curve" smooth="yes"/>
      <point x="84" y="380" type="line" smooth="yes"/>
      <point x="84" y="311"/>
      <point x="41" y="296"/>
      <point x="16" y="295" type="curve"/>
      <point x="16" y="198" type="line"/>
      <point x="41" y="197"/>
      <point x="84" y="182"/>
      <point x="84" y="113" type="curve" smooth="yes"/>
      <point x="84" y="-101" type="line" smooth="yes"/>
      <point x="84" y="-192"/>
      <point x="125" y="-249"/>
    </contour>
  </outline>
</glyph>
<glyph name="cent" format="2">
  <advance width="560"/>
  <unicode hex="00A2"/>
  <outline>
    <contour>
      <point x="229" y="-113" type="line"/>
      <point x="341" y="-113" type="line"/>
      <point x="341" y="60" type="line"/>
      <point x="229" y="60" type="line"/>
    </contour>
    <contour>
      <point x="229" y="429" type="line"/>
      <point x="341" y="429" type="line"/>
      <point x="341" y="601" type="line"/>
      <point x="229" y="601" type="line"/>
    </contour>
    <component base="c" xOffset="18"/>
  </outline>
</glyph>
<glyph name="sterling" format="2">
  <advance width="560"/>
  <unicode hex="00A3"/>
  <guideline x="105" y="403" angle="90"/>
  <guideline x="169" y="126" angle="0"/>
  <guideline x="233" y="406" angle="90"/>
  <outline>
    <contour>
      <point x="40" y="0" type="line"/>
      <point x="532" y="0" type="line"/>
      <point x="532" y="126" type="line"/>
      <point x="234" y="126" type="line"/>
      <point x="234" y="278" type="line"/>
      <point x="444" y="278" type="line"/>
      <point x="444" y="404" type="line"/>
      <point x="234" y="404" type="line"/>
      <point x="234" y="510" type="line"/>
      <point x="234" y="560"/>
      <point x="267" y="591"/>
      <point x="322" y="591" type="curve" smooth="yes"/>
      <point x="365" y="591"/>
      <point x="408" y="568"/>
      <point x="413" y="517" type="curve"/>
      <point x="529" y="561" type="line"/>
      <point x="513" y="655"/>
      <point x="432" y="717"/>
      <point x="319" y="717" type="curve" smooth="yes"/>
      <point x="183" y="717"/>
      <point x="108" y="625"/>
      <point x="108" y="513" type="curve"/>
      <point x="108" y="404" type="line"/>
      <point x="41" y="404" type="line"/>
      <point x="41" y="278" type="line"/>
      <point x="105" y="278" type="line"/>
      <point x="105" y="126" type="line"/>
      <point x="40" y="126" type="line"/>
    </contour>
  </outline>
</glyph>
<glyph name="currency" format="2">
  <advance width="609"/>
  <unicode hex="00A4"/>
  <outline>
    <contour>
      <point x="127" y="51" type="line"/>
      <point x="181" y="106" type="line"/>
      <point x="220" y="83"/>
      <point x="263" y="72"/>
      <point x="306" y="72" type="curve" smooth="yes"/>
      <point x="350" y="72"/>
      <point x="392" y="83"/>
      <point x="429" y="106" type="curve"/>
      <point x="484" y="51" type="line"/>
      <point x="564" y="134" type="line"/>
      <point x="510" y="186" type="line"/>
      <point x="533" y="225"/>
      <point x="545" y="268"/>
      <point x="545" y="310" type="curve" smooth="yes"/>
      <point x="545" y="353"/>
      <point x="533" y="396"/>
      <point x="510" y="434" type="curve"/>
      <point x="564" y="488" type="line"/>
      <point x="483" y="568" type="line"/>
      <point x="429" y="514" type="line"/>
      <point x="392" y="537"/>
      <point x="351" y="548"/>
      <point x="308" y="548" type="curve" smooth="yes"/>
      <point x="265" y="548"/>
      <point x="222" y="536"/>
      <point x="183" y="512" type="curve"/>
      <point x="129" y="569" type="line"/>
      <point x="49" y="485" type="line"/>
      <point x="102" y="433" type="line"/>
      <point x="80" y="396"/>
      <point x="69" y="353"/>
      <point x="69" y="310" type="curve" smooth="yes"/>
      <point x="69" y="268"/>
      <point x="80" y="225"/>
      <point x="102" y="187" type="curve"/>
      <point x="48" y="134" type="line"/>
    </contour>
    <contour>
      <point x="306" y="185" type="curve" smooth="yes"/>
      <point x="239" y="185"/>
      <point x="181" y="234"/>
      <point x="181" y="307" type="curve" smooth="yes"/>
      <point x="181" y="378"/>
      <point x="236" y="435"/>
      <point x="305" y="435" type="curve" smooth="yes"/>
      <point x="372" y="435"/>
      <point x="431" y="377"/>
      <point x="431" y="311" type="curve" smooth="yes"/>
      <point x="431" y="245"/>
      <point x="377" y="185"/>
    </contour>
  </outline>
</glyph>
<glyph name="section" format="2">
  <advance width="626"/>
  <unicode hex="00A7"/>
  <outline>
    <contour>
      <point x="304" y="-227" type="curve" smooth="yes"/>
      <point x="426" y="-227"/>
      <point x="532" y="-158"/>
      <point x="532" y="-27" type="curve" smooth="yes"/>
      <point x="532" y="6"/>
      <point x="525" y="36"/>
      <point x="514" y="59" type="curve"/>
      <point x="553" y="96"/>
      <point x="576" y="148"/>
      <point x="576" y="210" type="curve" smooth="yes"/>
      <point x="576" y="346"/>
      <point x="462" y="390"/>
      <point x="377" y="423" type="curve" smooth="yes"/>
      <point x="311" y="449"/>
      <point x="251" y="471"/>
      <point x="251" y="516" type="curve" smooth="yes"/>
      <point x="251" y="549"/>
      <point x="279" y="569"/>
      <point x="317" y="569" type="curve" smooth="yes"/>
      <point x="353" y="569"/>
      <point x="392" y="542"/>
      <point x="411" y="501" type="curve"/>
      <point x="542" y="581" type="line"/>
      <point x="496" y="665"/>
      <point x="414" y="708"/>
      <point x="322" y="708" type="curve" smooth="yes"/>
      <point x="201" y="708"/>
      <point x="93" y="640"/>
      <point x="93" y="508" type="curve" smooth="yes"/>
      <point x="93" y="475"/>
      <point x="101" y="446"/>
      <point x="113" y="423" type="curve"/>
      <point x="73" y="385"/>
      <point x="50" y="336"/>
      <point x="50" y="273" type="curve" smooth="yes"/>
      <point x="50" y="138"/>
      <point x="161" y="93"/>
      <point x="248" y="59" type="curve" smooth="yes"/>
      <point x="310" y="35"/>
      <point x="375" y="14"/>
      <point x="375" y="-35" type="curve" smooth="yes"/>
      <point x="375" y="-67"/>
      <point x="347" y="-87"/>
      <point x="309" y="-87" type="curve" smooth="yes"/>
      <point x="274" y="-87"/>
      <point x="234" y="-61"/>
      <point x="215" y="-19" type="curve"/>
      <point x="84" y="-99" type="line"/>
      <point x="132" y="-188"/>
      <point x="219" y="-227"/>
    </contour>
    <contour>
      <point x="408" y="160" type="curve"/>
      <point x="370" y="174"/>
      <point x="338" y="183"/>
      <point x="330" y="186" type="curve" smooth="yes"/>
      <point x="264" y="213"/>
      <point x="207" y="238"/>
      <point x="207" y="287" type="curve" smooth="yes"/>
      <point x="207" y="298"/>
      <point x="210" y="312"/>
      <point x="218" y="322" type="curve"/>
      <point x="256" y="308"/>
      <point x="263" y="309"/>
      <point x="297" y="295" type="curve" smooth="yes"/>
      <point x="361" y="269"/>
      <point x="419" y="246"/>
      <point x="419" y="196" type="curve" smooth="yes"/>
      <point x="419" y="182"/>
      <point x="416" y="171"/>
    </contour>
  </outline>
</glyph>
<glyph name="dieresis" format="2">
  <advance width="420"/>
  <unicode hex="00A8"/>
  <outline>
    <contour>
      <point x="322" y="537" type="curve" smooth="yes"/>
      <point x="370" y="537"/>
      <point x="407" y="575"/>
      <point x="407" y="623" type="curve" smooth="yes"/>
      <point x="407" y="671"/>
      <point x="370" y="708"/>
      <point x="322" y="708" type="curve" smooth="yes"/>
      <point x="274" y="708"/>
      <point x="237" y="671"/>
      <point x="237" y="623" type="curve" smooth="yes"/>
      <point x="237" y="575"/>
      <point x="275" y="537"/>
    </contour>
    <contour>
      <point x="116" y="537" type="curve" smooth="yes"/>
      <point x="164" y="537"/>
      <point x="201" y="575"/>
      <point x="201" y="623" type="curve" smooth="yes"/>
      <point x="201" y="671"/>
      <point x="164" y="708"/>
      <point x="116" y="708" type="curve" smooth="yes"/>
      <point x="68" y="708"/>
      <point x="31" y="671"/>
      <point x="31" y="623" type="curve" smooth="yes"/>
      <point x="31" y="575"/>
      <point x="69" y="537"/>
    </contour>
  </outline>
</glyph>
<glyph name="ordfeminine" format="2">
  <advance width="456"/>
  <unicode hex="00AA"/>
  <outline>
    <contour>
      <point x="189" y="350" type="curve" smooth="yes"/>
      <point x="229" y="350"/>
      <point x="263" y="363"/>
      <point x="293" y="390" type="curve"/>
      <point x="295" y="359" type="line"/>
      <point x="372" y="359" type="line"/>
      <point x="372" y="567" type="line" smooth="yes"/>
      <point x="372" y="650"/>
      <point x="316" y="708"/>
      <point x="222" y="708" type="curve" smooth="yes"/>
      <point x="159" y="708"/>
      <point x="113" y="685"/>
      <point x="71" y="625" type="curve"/>
      <point x="138" y="580" type="line"/>
      <point x="154" y="602"/>
      <point x="178" y="630"/>
      <point x="225" y="630" type="curve" smooth="yes"/>
      <point x="257" y="630"/>
      <point x="276" y="617"/>
      <point x="285" y="596" type="curve" smooth="yes"/>
      <point x="288" y="589"/>
      <point x="289" y="581"/>
      <point x="289" y="570" type="curve"/>
      <point x="195" y="570" type="line" smooth="yes"/>
      <point x="122" y="570"/>
      <point x="61" y="537"/>
      <point x="61" y="463" type="curve" smooth="yes"/>
      <point x="61" y="393"/>
      <point x="117" y="350"/>
    </contour>
    <contour>
      <point x="209" y="429" type="curve" smooth="yes"/>
      <point x="170" y="429"/>
      <point x="154" y="444"/>
      <point x="154" y="461" type="curve" smooth="yes"/>
      <point x="154" y="480"/>
      <point x="170" y="493"/>
      <point x="201" y="493" type="curve" smooth="yes"/>
      <point x="289" y="493" type="line"/>
      <point x="286" y="479"/>
      <point x="282" y="466"/>
      <point x="273" y="454" type="curve" smooth="yes"/>
      <point x="259" y="437"/>
      <point x="238" y="429"/>
    </contour>
  </outline>
</glyph>
<glyph name="degree" format="2">
  <advance width="424"/>
  <unicode hex="00B0"/>
  <outline>
    <contour>
      <point x="211" y="417" type="curve" smooth="yes"/>
      <point x="292" y="417"/>
      <point x="358" y="482"/>
      <point x="358" y="563" type="curve" smooth="yes"/>
      <point x="358" y="643"/>
      <point x="292" y="708"/>
      <point x="211" y="708" type="curve" smooth="yes"/>
      <point x="132" y="708"/>
      <point x="66" y="643"/>
      <point x="66" y="563" type="curve" smooth="yes"/>
      <point x="66" y="482"/>
      <point x="132" y="417"/>
    </contour>
    <contour>
      <point x="211" y="518" type="curve" smooth="yes"/>
      <point x="187" y="518"/>
      <point x="167" y="537"/>
      <point x="167" y="563" type="curve" smooth="yes"/>
      <point x="167" y="588"/>
      <point x="186" y="607"/>
      <point x="211" y="607" type="curve" smooth="yes"/>
      <point x="238" y="607"/>
      <point x="258" y="588"/>
      <point x="258" y="563" type="curve" smooth="yes"/>
      <point x="258" y="537"/>
      <point x="238" y="518"/>
    </contour>
  </outline>
</glyph>
<glyph name="plusminus" format="2">
  <advance width="560"/>
  <unicode hex="00B1"/>
  <outline>
    <contour>
      <point x="221" y="135" type="line"/>
      <point x="340" y="135" type="line"/>
      <point x="340" y="283" type="line"/>
      <point x="526" y="283" type="line"/>
      <point x="526" y="401" type="line"/>
      <point x="340" y="401" type="line"/>
      <point x="340" y="547" type="line"/>
      <point x="221" y="547" type="line"/>
      <point x="221" y="401" type="line"/>
      <point x="34" y="401" type="line"/>
      <point x="34" y="283" type="line"/>
      <point x="221" y="283" type="line"/>
    </contour>
    <contour>
      <point x="34" y="-57" type="line"/>
      <point x="526" y="-57" type="line"/>
      <point x="526" y="62" type="line"/>
      <point x="34" y="62" type="line"/>
    </contour>
  </outline>
</glyph>
<glyph name="acute" format="2">
  <advance width="337"/>
  <unicode hex="00B4"/>
  <outline>
    <contour>
      <point x="31" y="554" type="line"/>
      <point x="140" y="554" type="line"/>
      <point x="306" y="697" type="line"/>
      <point x="144" y="697" type="line"/>
    </contour>
  </outline>
</glyph>
<glyph name="paragraph" format="2">
  <advance width="643"/>
  <unicode hex="00B6"/>
  <outline>
    <contour>
      <point x="269" y="-121" type="line"/>
      <point x="352" y="-121" type="line"/>
      <point x="352" y="697" type="line"/>
      <point x="269" y="697" type="line" smooth="yes"/>
      <point x="153" y="697"/>
      <point x="45" y="625"/>
      <point x="45" y="502" type="curve" smooth="yes"/>
      <point x="45" y="379"/>
      <point x="153" y="307"/>
      <point x="269" y="307" type="curve"/>
    </contour>
    <contour>
      <point x="461" y="-121" type="line"/>
      <point x="546" y="-121" type="line"/>
      <point x="546" y="697" type="line"/>
      <point x="461" y="697" type="line"/>
    </contour>
  </outline>
</glyph>
<glyph name="periodcentered" format="2">
  <advance width="290"/>
  <unicode hex="00B7"/>
  <outline>
    <contour>
      <point x="76" y="278" type="line"/>
      <point x="216" y="278" type="line"/>
      <point x="216" y="420" type="line"/>
      <point x="76" y="420" type="line"/>
    </contour>
  </outline>
</glyph>
<glyph name="onesuperior" format="2">
  <advance width="252"/>
  <unicode hex="00B9"/>
  <outline>
    <contour>
      <point x="113" y="488" type="line"/>
      <point x="192" y="488" type="line"/>
      <point x="192" y="902" type="line"/>
      <point x="117" y="902" type="line"/>
      <point x="117" y="879" type="line" smooth="yes"/>
      <point x="117" y="850"/>
      <point x="100" y="838"/>
      <point x="71" y="838" type="curve" smooth="yes"/>
      <point x="18" y="838" type="line"/>
      <point x="18" y="777" type="line"/>
      <point x="136" y="777" type="line"/>
      <point x="113" y="814" type="line"/>
    </contour>
  </outline>
</glyph>
<glyph name="ordmasculine" format="2">
  <advance width="477"/>
  <unicode hex="00BA"/>
  <outline>
    <contour>
      <point x="238" y="350" type="curve" smooth="yes"/>
      <point x="344" y="350"/>
      <point x="417" y="431"/>
      <point x="417" y="529" type="curve" smooth="yes"/>
      <point x="417" y="626"/>
      <point x="344" y="708"/>
      <point x="238" y="708" type="curve" smooth="yes"/>
      <point x="131" y="708"/>
      <point x="59" y="626"/>
      <point x="59" y="529" type="curve" smooth="yes"/>
      <point x="59" y="432"/>
      <point x="130" y="350"/>
    </contour>
    <contour>
      <point x="238" y="432" type="curve" smooth="yes"/>
      <point x="174" y="432"/>
      <point x="156" y="477"/>
      <point x="156" y="529" type="curve" smooth="yes"/>
      <point x="156" y="583"/>
      <point x="175" y="626"/>
      <point x="238" y="626" type="curve" smooth="yes"/>
      <point x="301" y="626"/>
      <point x="320" y="583"/>
      <point x="320" y="529" type="curve" smooth="yes"/>
      <point x="320" y="477"/>
      <point x="301" y="432"/>
    </contour>
  </outline>
</glyph>
<glyph name="germandbls" format="2">
  <advance width="663"/>
  <unicode hex="00DF"/>
  <outline>
    <contour>
      <point x="435" y="-11" type="curve" smooth="yes"/>
      <point x="526" y="-11"/>
      <point x="636" y="39"/>
      <point x="636" y="163" type="curve" smooth="yes"/>
      <point x="636" y="340"/>
      <point x="410" y="315"/>
      <point x="410" y="344" type="curve" smooth="yes"/>
      <point x="410" y="370"/>
      <point x="593" y="383"/>
      <point x="593" y="538" type="curve" smooth="yes"/>
      <point x="593" y="653"/>
      <point x="493" y="707"/>
      <point x="344" y="707" type="curve" smooth="yes"/>
      <point x="108" y="707"/>
      <point x="54" y="571"/>
      <point x="54" y="427" type="curve" smooth="yes"/>
      <point x="54" y="0" type="line"/>
      <point x="211" y="0" type="line"/>
      <point x="211" y="427" type="line" smooth="yes"/>
      <point x="211" y="480"/>
      <point x="208" y="566"/>
      <point x="356" y="566" type="curve" smooth="yes"/>
      <point x="395" y="566"/>
      <point x="445" y="560"/>
      <point x="445" y="533" type="curve" smooth="yes"/>
      <point x="445" y="481"/>
      <point x="262" y="495"/>
      <point x="262" y="344" type="curve" smooth="yes"/>
      <point x="262" y="176"/>
      <point x="488" y="209"/>
      <point x="488" y="148" type="curve" smooth="yes"/>
      <point x="488" y="132"/>
      <point x="473" y="114"/>
      <point x="433" y="114" type="curve" smooth="yes"/>
      <point x="369" y="114"/>
      <point x="354" y="158"/>
      <point x="344" y="185" type="curve"/>
      <point x="224" y="132" type="line"/>
      <point x="247" y="56"/>
      <point x="327" y="-11"/>
    </contour>
  </outline>
</glyph>
<glyph name="ae" format="2">
  <advance width="851"/>
  <unicode hex="00E6"/>
  <anchor x="426" y="0" name="bottom"/>
  <anchor x="426" y="493" name="top"/>
  <outline>
    <contour>
      <point x="226" y="-11" type="curve" smooth="yes"/>
      <point x="288" y="-11"/>
      <point x="347" y="5"/>
      <point x="403" y="59" type="curve"/>
      <point x="417" y="59" type="line"/>
      <point x="451" y="17"/>
      <point x="506" y="-11"/>
      <point x="591" y="-11" type="curve" smooth="yes"/>
      <point x="678" y="-11"/>
      <point x="727" y="7"/>
      <point x="805" y="59" type="curve"/>
      <point x="741" y="165" type="line"/>
      <point x="703" y="136"/>
      <point x="649" y="118"/>
      <point x="601" y="118" type="curve" smooth="yes"/>
      <point x="546" y="118"/>
      <point x="499" y="141"/>
      <point x="491" y="194" type="curve"/>
      <point x="815" y="194" type="line"/>
      <point x="817" y="215"/>
      <point x="818" y="228"/>
      <point x="818" y="242" type="curve" smooth="yes"/>
      <point x="818" y="394"/>
      <point x="737" y="504"/>
      <point x="583" y="504" type="curve" smooth="yes"/>
      <point x="526" y="504"/>
      <point x="482" y="489"/>
      <point x="443" y="458" type="curve"/>
      <point x="414" y="490"/>
      <point x="359" y="504"/>
      <point x="289" y="504" type="curve" smooth="yes"/>
      <point x="194" y="504"/>
      <point x="116" y="478"/>
      <point x="46" y="411" type="curve"/>
      <point x="155" y="320" type="line"/>
      <point x="193" y="363"/>
      <point x="241" y="373"/>
      <point x="273" y="373" type="curve" smooth="yes"/>
      <point x="323" y="373"/>
      <point x="355" y="350"/>
      <point x="355" y="313" type="curve" smooth="yes"/>
      <point x="355" y="299" type="line"/>
      <point x="264" y="299" type="line" smooth="yes"/>
      <point x="225" y="299"/>
      <point x="34" y="304"/>
      <point x="34" y="154" type="curve" smooth="yes"/>
      <point x="34" y="60"/>
      <point x="100" y="-11"/>
    </contour>
    <contour>
      <point x="245" y="117" type="curve" smooth="yes"/>
      <point x="207" y="117"/>
      <point x="189" y="132"/>
      <point x="189" y="151" type="curve" smooth="yes"/>
      <point x="189" y="167"/>
      <point x="203" y="191"/>
      <point x="263" y="191" type="curve" smooth="yes"/>
      <point x="355" y="191" type="line"/>
      <point x="355" y="186" type="line"/>
      <point x="343" y="141"/>
      <point x="303" y="117"/>
    </contour>
    <contour>
      <point x="489" y="305" type="line"/>
      <point x="495" y="337"/>
      <point x="519" y="379"/>
      <point x="586" y="379" type="curve" smooth="yes"/>
      <point x="631" y="379"/>
      <point x="672" y="352"/>
      <point x="675" y="305" type="curve"/>
    </contour>
  </outline>
</glyph>
<glyph name="eth" format="2">
  <advance width="591"/>
  <unicode hex="00F0"/>
  <outline>
    <contour>
      <point x="273" y="-11" type="curve" smooth="yes"/>
      <point x="453" y="-11"/>
      <point x="569" y="127"/>
      <point x="569" y="375" type="curve" smooth="yes"/>
      <point x="569" y="582"/>
      <point x="488" y="716"/>
      <point x="248" y="738" type="curve"/>
      <point x="236" y="638" type="line"/>
      <point x="385" y="632"/>
      <point x="443" y="527"/>
      <point x="443" y="426" type="curve"/>
      <point x="412" y="473"/>
      <point x="351" y="487"/>
      <point x="301" y="487" type="curve" smooth="yes"/>
      <point x="164" y="487"/>
      <point x="35" y="379"/>
      <point x="35" y="218" type="curve" smooth="yes"/>
      <point x="35" y="87"/>
      <point x="121" y="-11"/>
    </contour>
    <contour>
      <point x="282" y="118" type="curve" smooth="yes"/>
      <point x="226" y="118"/>
      <point x="176" y="150"/>
      <point x="176" y="220" type="curve" smooth="yes"/>
      <point x="176" y="278"/>
      <point x="211" y="364"/>
      <point x="317" y="364" type="curve" smooth="yes"/>
      <point x="383" y="364"/>
      <point x="420" y="330"/>
      <point x="425" y="282" type="curve" smooth="yes"/>
      <point x="433" y="206"/>
      <point x="374" y="118"/>
    </contour>
    <contour>
      <point x="209" y="521" type="line"/>
      <point x="573" y="607" type="line"/>
      <point x="559" y="667" type="line"/>
      <point x="194" y="581" type="line"/>
    </contour>
  </outline>
</glyph>
<glyph name="divide" format="2">
  <advance width="560"/>
  <unicode hex="00F7"/>
  <outline>
    <contour>
      <point x="50" y="188" type="line"/>
      <point x="510" y="188" type="line"/>
      <point x="510" y="306" type="line"/>
      <point x="50" y="306" type="line"/>
    </contour>
    <contour>
      <point x="193" y="-1" type="line"/>
      <point x="367" y="-1" type="line"/>
      <point x="367" y="146" type="line"/>
      <point x="193" y="146" type="line"/>
    </contour>
    <contour>
      <point x="193" y="349" type="line"/>
      <point x="367" y="349" type="line"/>
      <point x="367" y="494" type="line"/>
      <point x="193" y="494" type="line"/>
    </contour>
  </outline>
</glyph>
<glyph name="thorn" format="2">
  <advance width="601"/>
  <unicode hex="00FE"/>
  <guideline x="424" y="-204" angle="0" name=""/>
  <anchor x="298" y="0" name="bottom"/>
  <anchor x="298" y="493" name="top"/>
  <outline>
    <contour>
      <point x="79" y="-204" type="line"/>
      <point x="230" y="-204" type="line"/>
      <point x="230" y="124" type="line"/>
      <point x="204" y="82" type="line"/>
      <point x="219" y="27"/>
      <point x="293" y="-11"/>
      <point x="359" y="-11" type="curve" smooth="yes"/>
      <point x="466" y="-11"/>
      <point x="560" y="76"/>
      <point x="560" y="245" type="curve" smooth="yes"/>
      <point x="560" y="390"/>
      <point x="491" y="504"/>
      <point x="359" y="504" type="curve" smooth="yes"/>
      <point x="299" y="504"/>
      <point x="223" y="479"/>
      <point x="199" y="405" type="curve"/>
      <point x="230" y="371" type="line"/>
      <point x="230" y="697" type="line"/>
      <point x="79" y="697" type="line"/>
    </contour>
    <contour>
      <point x="317" y="120" type="curve" smooth="yes"/>
      <point x="242" y="120"/>
      <point x="216" y="177"/>
      <point x="216" y="247" type="curve" smooth="yes"/>
      <point x="216" y="317"/>
      <point x="239" y="372"/>
      <point x="319" y="372" type="curve" smooth="yes"/>
      <point x="386" y="372"/>
      <point x="410" y="332"/>
      <point x="410" y="247" type="curve" smooth="yes"/>
      <point x="410" y="161"/>
      <point x="382" y="120"/>
    </contour>
  </outline>
</glyph>
<glyph name="idotless" format="2">
  <advance width="258"/>
  <unicode hex="0131"/>
  <anchor x="129" y="0" name="bottom"/>
  <anchor x="204" y="0" name="ogonek"/>
  <anchor x="129" y="493" name="top"/>
  <outline>
    <contour>
      <point x="53" y="0" type="line"/>
      <point x="204" y="0" type="line"/>
      <point x="204" y="493" type="line"/>
      <point x="53" y="493" type="line"/>
    </contour>
  </outline>
</glyph>
<glyph name="eng" format="2">
  <advance width="619"/>
  <unicode hex="014B"/>
  <guideline x="424" y="-204" angle="0" name=""/>
  <outline>
    <contour>
      <point x="424" y="-215" type="curve" smooth="yes"/>
      <point x="497" y="-215"/>
      <point x="551" y="-172"/>
      <point x="551" y="-78" type="curve" smooth="yes"/>
      <point x="551" y="328" type="line" smooth="yes"/>
      <point x="551" y="441"/>
      <point x="480" y="504"/>
      <point x="369" y="504" type="curve" smooth="yes"/>
      <point x="292" y="504"/>
      <point x="228" y="474"/>
      <point x="198" y="392" type="curve"/>
      <point x="229" y="360" type="line"/>
      <point x="229" y="493" type="line"/>
      <point x="78" y="493" type="line"/>
      <point x="78" y="0" type="line"/>
      <point x="229" y="0" type="line"/>
      <point x="229" y="179" type="line" smooth="yes"/>
      <point x="229" y="242"/>
      <point x="199" y="373"/>
      <point x="320" y="373" type="curve" smooth="yes"/>
      <point x="409" y="373"/>
      <point x="400" y="296"/>
      <point x="400" y="290" type="curve" smooth="yes"/>
      <point x="400" y="-57" type="line" smooth="yes"/>
      <point x="400" y="-80"/>
      <point x="390" y="-84"/>
      <point x="372" y="-84" type="curve" smooth="yes"/>
      <point x="364" y="-84"/>
      <point x="355" y="-83"/>
      <point x="339" y="-79" type="curve"/>
      <point x="339" y="-199" type="line"/>
      <point x="369" y="-210"/>
      <point x="397" y="-215"/>
    </contour>
  </outline>
</glyph>
<glyph name="Schwa" format="2">
  <advance width="766"/>
  <unicode hex="018F"/>
  <anchor x="380" y="0" name="bottom"/>
  <anchor x="380" y="697" name="top"/>
  <outline>
    <contour>
      <point x="383" y="-18" type="curve" smooth="yes"/>
      <point x="594" y="-18"/>
      <point x="734" y="127"/>
      <point x="734" y="348" type="curve" smooth="yes"/>
      <point x="734" y="571"/>
      <point x="595" y="717"/>
      <point x="386" y="717" type="curve" smooth="yes"/>
      <point x="230" y="717"/>
      <point x="115" y="637"/>
      <point x="64" y="505" type="curve"/>
      <point x="209" y="448" type="line"/>
      <point x="236" y="527"/>
      <point x="301" y="567"/>
      <point x="386" y="567" type="curve" smooth="yes"/>
      <point x="506" y="567"/>
      <point x="577" y="489"/>
      <point x="577" y="350" type="curve" smooth="yes"/>
      <point x="577" y="211"/>
      <point x="504" y="132"/>
      <point x="383" y="132" type="curve" smooth="yes"/>
      <point x="262" y="132"/>
      <point x="189" y="211"/>
      <point x="189" y="351" type="curve"/>
      <point x="32" y="351" type="line"/>
      <point x="32" y="127"/>
      <point x="172" y="-18"/>
    </contour>
    <contour>
      <point x="112" y="231" type="line"/>
      <point x="693" y="231" type="line"/>
      <point x="693" y="351" type="line"/>
      <point x="112" y="351" type="line"/>
    </contour>
  </outline>
</glyph>
<glyph name="florin" format="2">
  <advance width="560"/>
  <unicode hex="0192"/>
  <outline>
    <contour>
      <point x="84" y="-210" type="line"/>
      <point x="237" y="-210"/>
      <point x="328" y="-141"/>
      <point x="328" y="25" type="curve" smooth="yes"/>
      <point x="328" y="381" type="line"/>
      <point x="429" y="381" type="line"/>
      <point x="429" y="493" type="line"/>
      <point x="328" y="493" type="line"/>
      <point x="328" y="544" type="line" smooth="yes"/>
      <point x="328" y="576"/>
      <point x="340" y="591"/>
      <point x="365" y="591" type="curve" smooth="yes"/>
      <point x="378" y="591"/>
      <point x="392" y="582"/>
      <point x="408" y="564" type="curve"/>
      <point x="489" y="660" type="line"/>
      <point x="456" y="697"/>
      <point x="411" y="718"/>
      <point x="349" y="718" type="curve" smooth="yes"/>
      <point x="254" y="718"/>
      <point x="201" y="647"/>
      <point x="201" y="554" type="curve" smooth="yes"/>
      <point x="201" y="493" type="line"/>
      <point x="112" y="493" type="line"/>
      <point x="112" y="381" type="line"/>
      <point x="201" y="381" type="line"/>
      <point x="201" y="38" type="line" smooth="yes"/>
      <point x="201" y="-68"/>
      <point x="177" y="-96"/>
      <point x="84" y="-96" type="curve"/>
    </contour>
  </outline>
</glyph>
<glyph name="Nhookleft" format="2">
  <advance width="698"/>
  <unicode hex="019D"/>
  <anchor x="349" y="0" name="bottom"/>
  <anchor x="349" y="697" name="top"/>
  <outline>
    <contour>
      <point x="59" y="0" type="line"/>
      <point x="216" y="0" type="line"/>
      <point x="216" y="475" type="line"/>
      <point x="180" y="475" type="line"/>
      <point x="478" y="0" type="line"/>
      <point x="639" y="0" type="line"/>
      <point x="639" y="697" type="line"/>
      <point x="482" y="697" type="line"/>
      <point x="482" y="225" type="line"/>
      <point x="518" y="225" type="line"/>
      <point x="219" y="697" type="line"/>
      <point x="59" y="697" type="line"/>
    </contour>
    <contour>
      <point x="-9" y="-189" type="line"/>
      <point x="156" y="-189"/>
      <point x="216" y="-107"/>
      <point x="216" y="-26" type="curve" smooth="yes"/>
      <point x="216" y="0" type="line"/>
      <point x="59" y="0" type="line"/>
      <point x="59" y="-16"/>
      <point x="59" y="-23"/>
      <point x="59" y="-31" type="curve" smooth="yes"/>
      <point x="59" y="-54"/>
      <point x="43" y="-87"/>
      <point x="-9" y="-87" type="curve"/>
    </contour>
  </outline>
</glyph>
<glyph name="jdotless" format="2">
  <advance width="258"/>
  <unicode hex="0237"/>
  <guideline x="373" y="-204" angle="0" name=""/>
  <anchor x="129" y="-254" name="bottom"/>
  <anchor x="129" y="493" name="top"/>
  <outline>
    <contour>
      <point x="71" y="-215" type="curve" smooth="yes"/>
      <point x="149" y="-215"/>
      <point x="204" y="-172"/>
      <point x="204" y="-78" type="curve" smooth="yes"/>
      <point x="204" y="493" type="line"/>
      <point x="53" y="493" type="line"/>
      <point x="53" y="-36" type="line" smooth="yes"/>
      <point x="53" y="-70"/>
      <point x="39" y="-74"/>
      <point x="15" y="-74" type="curve" smooth="yes"/>
      <point x="4" y="-74"/>
      <point x="-10" y="-72"/>
      <point x="-25" y="-69" type="curve"/>
      <point x="-25" y="-199" type="line"/>
      <point x="6" y="-209"/>
      <point x="42" y="-215"/>
    </contour>
  </outline>
</glyph>
<glyph name="nhookleft" format="2">
  <advance width="575"/>
  <unicode hex="0272"/>
  <outline>
    <contour>
      <point x="53" y="0" type="line"/>
      <point x="204" y="0" type="line"/>
      <point x="204" y="217" type="line" smooth="yes"/>
      <point x="204" y="288"/>
      <point x="202" y="373"/>
      <point x="295" y="373" type="curve" smooth="yes"/>
      <point x="342" y="373"/>
      <point x="375" y="339"/>
      <point x="375" y="290" type="curve" smooth="yes"/>
      <point x="375" y="0" type="line"/>
      <point x="526" y="0" type="line"/>
      <point x="526" y="328" type="line" smooth="yes"/>
      <point x="526" y="441"/>
      <point x="455" y="504"/>
      <point x="344" y="504" type="curve" smooth="yes"/>
      <point x="267" y="504"/>
      <point x="203" y="474"/>
      <point x="173" y="392" type="curve"/>
      <point x="204" y="360" type="line"/>
      <point x="204" y="493" type="line"/>
      <point x="53" y="493" type="line"/>
    </contour>
    <contour>
      <point x="77" y="-215" type="curve" smooth="yes"/>
      <point x="150" y="-215"/>
      <point x="204" y="-172"/>
      <point x="204" y="-78" type="curve" smooth="yes"/>
      <point x="204" y="0" type="line"/>
      <point x="53" y="0" type="line"/>
      <point x="53" y="-57" type="line" smooth="yes"/>
      <point x="53" y="-80"/>
      <point x="43" y="-84"/>
      <point x="25" y="-84" type="curve" smooth="yes"/>
      <point x="17" y="-84"/>
      <point x="8" y="-83"/>
      <point x="-8" y="-79" type="curve"/>
      <point x="-8" y="-199" type="line"/>
      <point x="22" y="-210"/>
      <point x="50" y="-215"/>
    </contour>
  </outline>
</glyph>
<glyph name="caron" format="2">
  <advance width="382"/>
  <unicode hex="02C7"/>
  <outline>
    <contour>
      <point x="191" y="526" type="line"/>
      <point x="351" y="697" type="line"/>
      <point x="237" y="697" type="line"/>
      <point x="191" y="647" type="line"/>
      <point x="146" y="697" type="line"/>
      <point x="31" y="697" type="line"/>
    </contour>
  </outline>
</glyph>
<glyph name="dotaccent" format="2">
  <advance width="216"/>
  <unicode hex="02D9"/>
  <outline>
    <contour>
      <point x="31" y="561" type="line"/>
      <point x="185" y="561" type="line"/>
      <point x="185" y="697" type="line"/>
      <point x="31" y="697" type="line"/>
    </contour>
  </outline>
</glyph>
<glyph name="tilde" format="2">
  <advance width="405"/>
  <unicode hex="02DC"/>
  <outline>
    <contour>
      <point x="262" y="548" type="curve" smooth="yes"/>
      <point x="331" y="548"/>
      <point x="374" y="599"/>
      <point x="374" y="697" type="curve"/>
      <point x="284" y="697" type="line"/>
      <point x="284" y="658"/>
      <point x="275" y="639"/>
      <point x="264" y="639" type="curve" smooth="yes"/>
      <point x="240" y="639"/>
      <point x="210" y="699"/>
      <point x="145" y="699" type="curve" smooth="yes"/>
      <point x="75" y="699"/>
      <point x="31" y="644"/>
      <point x="31" y="547" type="curve"/>
      <point x="117" y="547" type="line"/>
      <point x="117" y="587"/>
      <point x="125" y="607"/>
      <point x="138" y="607" type="curve" smooth="yes"/>
      <point x="165" y="607"/>
      <point x="187" y="548"/>
    </contour>
  </outline>
</glyph>
<glyph name="hungarumlaut" format="2">
  <advance width="540"/>
  <unicode hex="02DD"/>
  <outline>
    <contour>
      <point x="236" y="527" type="line"/>
      <point x="345" y="527" type="line"/>
      <point x="509" y="697" type="line"/>
      <point x="349" y="697" type="line"/>
    </contour>
    <contour>
      <point x="31" y="527" type="line"/>
      <point x="140" y="527" type="line"/>
      <point x="279" y="697" type="line"/>
      <point x="144" y="697" type="line"/>
    </contour>
  </outline>
</glyph>
<glyph name="middledoubleacuteaccentmod" format="2">
  <advance width="588"/>
  <unicode hex="02F6"/>
  <outline>
    <contour>
      <point x="52" y="322" type="line"/>
      <point x="161" y="322" type="line"/>
      <point x="322" y="493" type="line"/>
      <point x="162" y="493" type="line"/>
    </contour>
    <contour>
      <point x="265" y="322" type="line"/>
      <point x="374" y="322" type="line"/>
      <point x="538" y="493" type="line"/>
      <point x="377" y="493" type="line"/>
    </contour>
  </outline>
</glyph>
<glyph name="gravecomb" format="2">
  <advance width="326"/>
  <unicode hex="0300"/>
  <anchor x="240" y="493" name="_top"/>
  <anchor x="163" y="697" name="top"/>
  <outline>
    <contour>
      <point x="184" y="554" type="line"/>
      <point x="295" y="554" type="line"/>
      <point x="191" y="697" type="line"/>
      <point x="31" y="697" type="line"/>
    </contour>
  </outline>
</glyph>
<glyph name="circumflexcomb" format="2">
  <advance width="382"/>
  <unicode hex="0302"/>
  <anchor x="191" y="493" name="_top"/>
  <anchor x="191" y="701" name="top"/>
  <outline>
    <contour>
      <point x="31" y="537" type="line"/>
      <point x="150" y="537" type="line"/>
      <point x="191" y="593" type="line"/>
      <point x="232" y="537" type="line"/>
      <point x="351" y="537" type="line"/>
      <point x="191" y="720" type="line"/>
    </contour>
  </outline>
</glyph>
<glyph name="brevecomb" format="2">
  <advance width="380"/>
  <unicode hex="0306"/>
  <anchor x="190" y="493" name="_top"/>
  <anchor x="190" y="697" name="top"/>
  <outline>
    <contour>
      <point x="190" y="543" type="curve" smooth="yes"/>
      <point x="296" y="543"/>
      <point x="349" y="585"/>
      <point x="349" y="697" type="curve"/>
      <point x="253" y="697" type="line"/>
      <point x="253" y="646"/>
      <point x="228" y="630"/>
      <point x="190" y="630" type="curve" smooth="yes"/>
      <point x="154" y="630"/>
      <point x="127" y="644"/>
      <point x="127" y="697" type="curve"/>
      <point x="31" y="697" type="line"/>
      <point x="31" y="591"/>
      <point x="78" y="543"/>
    </contour>
  </outline>
</glyph>
<glyph name="dblgravecomb" format="2">
  <advance width="540"/>
  <unicode hex="030F"/>
  <anchor x="352" y="493" name="_top"/>
  <anchor x="271" y="697" name="top"/>
  <outline>
    <contour>
      <point x="195" y="527" type="line"/>
      <point x="304" y="527" type="line"/>
      <point x="191" y="697" type="line"/>
      <point x="31" y="697" type="line"/>
    </contour>
    <contour>
      <point x="400" y="527" type="line"/>
      <point x="509" y="527" type="line"/>
      <point x="397" y="697" type="line"/>
      <point x="262" y="697" type="line"/>
    </contour>
  </outline>
</glyph>
<glyph name="horncomb" format="2">
  <advance width="225"/>
  <unicode hex="031B"/>
  <anchor x="114" y="493" name="_topright"/>
  <anchor x="114" y="493" name="topright"/>
  <outline>
    <contour>
      <point x="31" y="491" type="line"/>
      <point x="152" y="491"/>
      <point x="198" y="574"/>
      <point x="198" y="663" type="curve" smooth="yes"/>
      <point x="198" y="697" type="line"/>
      <point x="94" y="697" type="line"/>
      <point x="94" y="672" type="line" smooth="yes"/>
      <point x="94" y="620"/>
      <point x="80" y="589"/>
      <point x="31" y="589" type="curve"/>
    </contour>
  </outline>
</glyph>
<glyph name="dotbelowcomb" format="2">
  <advance width="216"/>
  <unicode hex="0323"/>
  <anchor x="108" y="0" name="_bottom"/>
  <anchor x="108" y="-173" name="bottom"/>
  <outline>
    <contour>
      <point x="31" y="-173" type="line"/>
      <point x="185" y="-173" type="line"/>
      <point x="185" y="-56" type="line"/>
      <point x="31" y="-56" type="line"/>
    </contour>
  </outline>
</glyph>
<glyph name="commaaccentcomb" format="2">
  <advance width="273"/>
  <unicode hex="0326"/>
  <anchor x="164" y="0" name="_bottom"/>
  <anchor x="137" y="-204" name="bottom"/>
  <outline>
    <contour>
      <point x="31" y="-204" type="line"/>
      <point x="117" y="-204" type="line"/>
      <point x="242" y="-51" type="line"/>
      <point x="85" y="-51" type="line"/>
    </contour>
  </outline>
</glyph>
<glyph name="cedillacomb" format="2">
  <advance width="267"/>
  <unicode hex="0327"/>
  <anchor x="147" y="0" name="_bottom"/>
  <anchor x="134" y="-204" name="bottom"/>
  <outline>
    <contour>
      <point x="124" y="-204" type="curve" smooth="yes"/>
      <point x="191" y="-204"/>
      <point x="236" y="-165"/>
      <point x="236" y="-112" type="curve" smooth="yes"/>
      <point x="236" y="-68"/>
      <point x="204" y="-38"/>
      <point x="143" y="-29" type="curve"/>
      <point x="174" y="12" type="line"/>
      <point x="111" y="13" type="line"/>
      <point x="50" y="-74" type="line"/>
      <point x="97" y="-74"/>
      <point x="151" y="-77"/>
      <point x="151" y="-110" type="curve" smooth="yes"/>
      <point x="151" y="-128"/>
      <point x="135" y="-135"/>
      <point x="116" y="-135" type="curve" smooth="yes"/>
      <point x="100" y="-135"/>
      <point x="81" y="-130"/>
      <point x="64" y="-124" type="curve"/>
      <point x="31" y="-186" type="line"/>
      <point x="55" y="-201"/>
      <point x="106" y="-204"/>
    </contour>
  </outline>
</glyph>
<glyph name="ogonekcomb" format="2">
  <advance width="304"/>
  <unicode hex="0328"/>
  <anchor x="225" y="0" name="_ogonek"/>
  <outline>
    <contour>
      <point x="156" y="-204" type="curve" smooth="yes"/>
      <point x="216" y="-204"/>
      <point x="250" y="-175"/>
      <point x="273" y="-142" type="curve"/>
      <point x="218" y="-95" type="line"/>
      <point x="201" y="-118"/>
      <point x="180" y="-127"/>
      <point x="162" y="-127" type="curve" smooth="yes"/>
      <point x="139" y="-127"/>
      <point x="120" y="-112"/>
      <point x="120" y="-90" type="curve" smooth="yes"/>
      <point x="120" y="-41"/>
      <point x="206" y="-4"/>
      <point x="225" y="0" type="curve"/>
      <point x="107" y="0" type="line"/>
      <point x="81" y="-13"/>
      <point x="31" y="-44"/>
      <point x="31" y="-104" type="curve" smooth="yes"/>
      <point x="31" y="-164"/>
      <point x="84" y="-204"/>
    </contour>
  </outline>
</glyph>
<glyph name="strokeshortcomb" format="2">
  <advance width="417"/>
  <unicode hex="0335"/>
  <anchor x="209" y="292" name="_center"/>
  <outline>
    <contour>
      <point x="31" y="242" type="line"/>
      <point x="386" y="242" type="line"/>
      <point x="386" y="342" type="line"/>
      <point x="31" y="342" type="line"/>
    </contour>
  </outline>
</glyph>
<glyph name="slashshortcomb" format="2">
  <advance width="330"/>
  <unicode hex="0337"/>
  <anchor x="165" y="331" name="_center"/>
  <outline>
    <contour>
      <point x="31" y="178" type="line"/>
      <point x="299" y="370" type="line"/>
      <point x="299" y="503" type="line"/>
      <point x="31" y="313" type="line"/>
    </contour>
  </outline>
</glyph>
<glyph name="tonos" format="2">
  <advance width="277"/>
  <unicode hex="0384"/>
  <anchor x="86" y="493" name="_top"/>
  <outline>
    <contour>
      <point x="31" y="554" type="line"/>
      <point x="140" y="554" type="line"/>
      <point x="246" y="697" type="line"/>
      <point x="104" y="697" type="line"/>
    </contour>
  </outline>
</glyph>
<glyph name="dieresistonos" format="2">
  <advance width="490"/>
  <unicode hex="0385"/>
  <anchor x="245" y="493" name="_top"/>
  <outline>
    <contour>
      <point x="31" y="561" type="line"/>
      <point x="145" y="561" type="line"/>
      <point x="145" y="697" type="line"/>
      <point x="31" y="697" type="line"/>
    </contour>
    <contour>
      <point x="345" y="561" type="line"/>
      <point x="459" y="561" type="line"/>
      <point x="459" y="697" type="line"/>
      <point x="345" y="697" type="line"/>
    </contour>
    <contour>
      <point x="268" y="568" type="line"/>
      <point x="344" y="788" type="line"/>
      <point x="228" y="812" type="line"/>
      <point x="194" y="584" type="line"/>
    </contour>
  </outline>
</glyph>
<glyph name="pi" format="2">
  <advance width="598"/>
  <unicode hex="03C0"/>
  <outline>
    <contour>
      <point x="487" y="-11" type="curve" smooth="yes"/>
      <point x="525" y="-11"/>
      <point x="551" y="-3"/>
      <point x="584" y="18" type="curve"/>
      <point x="560" y="140" type="line"/>
      <point x="550" y="133"/>
      <point x="537" y="128"/>
      <point x="525" y="128" type="curve" smooth="yes"/>
      <point x="511" y="128"/>
      <point x="500" y="135"/>
      <point x="500" y="158" type="curve" smooth="yes"/>
      <point x="500" y="367" type="line"/>
      <point x="560" y="367" type="line"/>
      <point x="560" y="493" type="line"/>
      <point x="30" y="493" type="line"/>
      <point x="30" y="367" type="line"/>
      <point x="93" y="367" type="line"/>
      <point x="93" y="0" type="line"/>
      <point x="243" y="0" type="line"/>
      <point x="243" y="367" type="line"/>
      <point x="350" y="367" type="line"/>
      <point x="350" y="107" type="line" smooth="yes"/>
      <point x="350" y="31"/>
      <point x="399" y="-11"/>
    </contour>
  </outline>
</glyph>
<glyph name="horizontalbar" format="2">
  <advance width="720"/>
  <unicode hex="2015"/>
  <outline>
    <contour>
      <point x="44" y="234" type="line"/>
      <point x="677" y="234" type="line"/>
      <point x="677" y="346" type="line"/>
      <point x="44" y="346" type="line"/>
    </contour>
  </outline>
</glyph>
<glyph name="quotedblright" format="2">
  <advance width="480"/>
  <unicode hex="201D"/>
  <outline>
    <contour>
      <point x="237" y="421" type="line"/>
      <point x="336" y="421" type="line"/>
      <point x="457" y="697" type="line"/>
      <point x="283" y="697" type="line"/>
    </contour>
    <contour>
      <point x="31" y="421" type="line"/>
      <point x="129" y="421" type="line"/>
      <point x="252" y="697" type="line"/>
      <point x="77" y="697" type="line"/>
    </contour>
  </outline>
</glyph>
<glyph name="quotedblbase" format="2">
  <advance width="471"/>
  <unicode hex="201E"/>
  <outline>
    <contour>
      <point x="241" y="-145" type="line"/>
      <point x="339" y="-145" type="line"/>
      <point x="461" y="131" type="line"/>
      <point x="286" y="131" type="line"/>
    </contour>
    <contour>
      <point x="22" y="-145" type="line"/>
      <point x="120" y="-145" type="line"/>
      <point x="243" y="131" type="line"/>
      <point x="68" y="131" type="line"/>
    </contour>
  </outline>
</glyph>
<glyph name="dagger" format="2">
  <advance width="395"/>
  <unicode hex="2020"/>
  <outline>
    <contour>
      <point x="141" y="-101" type="line"/>
      <point x="253" y="-101" type="line"/>
      <point x="253" y="390" type="line"/>
      <point x="368" y="390" type="line"/>
      <point x="368" y="502" type="line"/>
      <point x="253" y="502" type="line"/>
      <point x="253" y="697" type="line"/>
      <point x="141" y="697" type="line"/>
      <point x="141" y="502" type="line"/>
      <point x="27" y="502" type="line"/>
      <point x="27" y="390" type="line"/>
      <point x="141" y="390" type="line"/>
    </contour>
  </outline>
</glyph>
<glyph name="triangularbullet" format="2">
  <advance width="448"/>
  <unicode hex="2023"/>
  <outline>
    <contour>
      <point x="67" y="55" type="line"/>
      <point x="433" y="271" type="line"/>
      <point x="67" y="486" type="line"/>
    </contour>
  </outline>
</glyph>
<glyph name="ellipsis" format="2">
  <advance width="708"/>
  <unicode hex="2026"/>
  <outline>
    <contour>
      <point x="511" y="0" type="line"/>
      <point x="665" y="0" type="line"/>
      <point x="665" y="142" type="line"/>
      <point x="511" y="142" type="line"/>
    </contour>
    <contour>
      <point x="43" y="0" type="line"/>
      <point x="197" y="0" type="line"/>
      <point x="197" y="142" type="line"/>
      <point x="43" y="142" type="line"/>
    </contour>
    <contour>
      <point x="277" y="0" type="line"/>
      <point x="431" y="0" type="line"/>
      <point x="431" y="142" type="line"/>
      <point x="277" y="142" type="line"/>
    </contour>
  </outline>
</glyph>
<glyph name="pertenthousand" format="2">
  <advance width="1354"/>
  <unicode hex="2031"/>
  <outline>
    <contour>
      <point x="79" y="0" type="line"/>
      <point x="185" y="0" type="line"/>
      <point x="621" y="697" type="line"/>
      <point x="515" y="697" type="line"/>
    </contour>
    <contour>
      <point x="515" y="-11" type="curve" smooth="yes"/>
      <point x="600" y="-11"/>
      <point x="663" y="62"/>
      <point x="663" y="152" type="curve" smooth="yes"/>
      <point x="663" y="244"/>
      <point x="598" y="315"/>
      <point x="512" y="315" type="curve" smooth="yes"/>
      <point x="429" y="315"/>
      <point x="364" y="253"/>
      <point x="364" y="153" type="curve" smooth="yes"/>
      <point x="364" y="50"/>
      <point x="431" y="-11"/>
    </contour>
    <contour>
      <point x="515" y="90" type="curve" smooth="yes"/>
      <point x="489" y="90"/>
      <point x="465" y="106"/>
      <point x="465" y="153" type="curve" smooth="yes"/>
      <point x="465" y="197"/>
      <point x="487" y="214"/>
      <point x="512" y="214" type="curve" smooth="yes"/>
      <point x="540" y="214"/>
      <point x="562" y="193"/>
      <point x="562" y="152" type="curve" smooth="yes"/>
      <point x="562" y="115"/>
      <point x="542" y="90"/>
    </contour>
    <contour>
      <point x="187" y="382" type="curve" smooth="yes"/>
      <point x="272" y="382"/>
      <point x="334" y="455"/>
      <point x="334" y="544" type="curve" smooth="yes"/>
      <point x="334" y="637"/>
      <point x="270" y="708"/>
      <point x="184" y="708" type="curve" smooth="yes"/>
      <point x="102" y="708"/>
      <point x="35" y="647"/>
      <point x="35" y="545" type="curve" smooth="yes"/>
      <point x="35" y="444"/>
      <point x="103" y="382"/>
    </contour>
    <contour>
      <point x="187" y="483" type="curve" smooth="yes"/>
      <point x="159" y="483"/>
      <point x="136" y="500"/>
      <point x="136" y="545" type="curve" smooth="yes"/>
      <point x="136" y="591"/>
      <point x="158" y="607"/>
      <point x="184" y="607" type="curve" smooth="yes"/>
      <point x="211" y="607"/>
      <point x="233" y="586"/>
      <point x="233" y="544" type="curve" smooth="yes"/>
      <point x="233" y="509"/>
      <point x="213" y="483"/>
    </contour>
    <contour>
      <point x="843" y="-11" type="curve" smooth="yes"/>
      <point x="927" y="-11"/>
      <point x="991" y="60"/>
      <point x="991" y="152" type="curve" smooth="yes"/>
      <point x="991" y="244"/>
      <point x="926" y="315"/>
      <point x="840" y="315" type="curve" smooth="yes"/>
      <point x="759" y="315"/>
      <point x="693" y="253"/>
      <point x="693" y="153" type="curve" smooth="yes"/>
      <point x="693" y="51"/>
      <point x="760" y="-11"/>
    </contour>
    <contour>
      <point x="843" y="90" type="curve" smooth="yes"/>
      <point x="817" y="90"/>
      <point x="793" y="106"/>
      <point x="793" y="153" type="curve" smooth="yes"/>
      <point x="793" y="198"/>
      <point x="816" y="214"/>
      <point x="840" y="214" type="curve" smooth="yes"/>
      <point x="868" y="214"/>
      <point x="891" y="193"/>
      <point x="891" y="152" type="curve" smooth="yes"/>
      <point x="891" y="115"/>
      <point x="871" y="90"/>
    </contour>
    <contour>
      <point x="1173" y="-11" type="curve" smooth="yes"/>
      <point x="1257" y="-11"/>
      <point x="1320" y="62"/>
      <point x="1320" y="152" type="curve" smooth="yes"/>
      <point x="1320" y="243"/>
      <point x="1255" y="315"/>
      <point x="1170" y="315" type="curve" smooth="yes"/>
      <point x="1087" y="315"/>
      <point x="1021" y="253"/>
      <point x="1021" y="153" type="curve" smooth="yes"/>
      <point x="1021" y="51"/>
      <point x="1088" y="-11"/>
    </contour>
    <contour>
      <point x="1173" y="90" type="curve" smooth="yes"/>
      <point x="1145" y="90"/>
      <point x="1122" y="107"/>
      <point x="1122" y="153" type="curve" smooth="yes"/>
      <point x="1122" y="198"/>
      <point x="1144" y="214"/>
      <point x="1170" y="214" type="curve" smooth="yes"/>
      <point x="1196" y="214"/>
      <point x="1219" y="194"/>
      <point x="1219" y="152" type="curve" smooth="yes"/>
      <point x="1219" y="115"/>
      <point x="1199" y="90"/>
    </contour>
  </outline>
</glyph>
<glyph name="fraction" format="2">
  <advance width="193"/>
  <unicode hex="2044"/>
  <outline>
    <contour>
      <point x="-175" y="0" type="line"/>
      <point x="-69" y="0" type="line"/>
      <point x="368" y="697" type="line"/>
      <point x="262" y="697" type="line"/>
    </contour>
  </outline>
</glyph>
<glyph name="foursuperior" format="2">
  <advance width="396"/>
  <unicode hex="2074"/>
  <outline>
    <contour>
      <point x="206" y="484" type="line"/>
      <point x="297" y="484" type="line"/>
      <point x="297" y="582" type="line"/>
      <point x="363" y="582" type="line"/>
      <point x="363" y="659" type="line"/>
      <point x="297" y="659" type="line"/>
      <point x="297" y="902" type="line"/>
      <point x="207" y="902" type="line"/>
      <point x="31" y="663" type="line"/>
      <point x="31" y="582" type="line"/>
      <point x="206" y="582" type="line"/>
    </contour>
    <contour>
      <point x="88" y="641" type="line"/>
      <point x="219" y="817" type="line"/>
      <point x="209" y="819" type="line"/>
      <point x="209" y="659" type="line"/>
      <point x="80" y="659" type="line"/>
    </contour>
  </outline>
</glyph>
<glyph name="dong" format="2">
  <advance width="560"/>
  <unicode hex="20AB"/>
  <outline>
    <contour>
      <point x="230" y="121" type="curve" smooth="yes"/>
      <point x="305" y="121"/>
      <point x="348" y="174"/>
      <point x="348" y="237" type="curve"/>
      <point x="326" y="237" type="line"/>
      <point x="346" y="131" type="line"/>
      <point x="456" y="131" type="line"/>
      <point x="456" y="737" type="line"/>
      <point x="326" y="737" type="line"/>
      <point x="326" y="452" type="line"/>
      <point x="381" y="432" type="line"/>
      <point x="358" y="537"/>
      <point x="308" y="569"/>
      <point x="230" y="569" type="curve" smooth="yes"/>
      <point x="121" y="569"/>
      <point x="38" y="489"/>
      <point x="38" y="346" type="curve" smooth="yes"/>
      <point x="38" y="218"/>
      <point x="105" y="121"/>
    </contour>
    <contour>
      <point x="42" y="0" type="line"/>
      <point x="523" y="0" type="line"/>
      <point x="523" y="87" type="line"/>
      <point x="42" y="87" type="line"/>
    </contour>
    <contour>
      <point x="254" y="241" type="curve" smooth="yes"/>
      <point x="201" y="241"/>
      <point x="169" y="280"/>
      <point x="169" y="346" type="curve" smooth="yes"/>
      <point x="169" y="411"/>
      <point x="201" y="449"/>
      <point x="254" y="449" type="curve" smooth="yes"/>
      <point x="306" y="449"/>
      <point x="338" y="410"/>
      <point x="338" y="346" type="curve" smooth="yes"/>
      <point x="338" y="281"/>
      <point x="307" y="241"/>
    </contour>
    <contour>
      <point x="215" y="610" type="line"/>
      <point x="523" y="610" type="line"/>
      <point x="523" y="687" type="line"/>
      <point x="215" y="687" type="line"/>
    </contour>
  </outline>
</glyph>
<glyph name="tenge" format="2">
  <advance width="560"/>
  <unicode hex="20B8"/>
  <outline>
    <contour>
      <point x="201" y="0" type="line"/>
      <point x="358" y="0" type="line"/>
      <point x="358" y="386" type="line"/>
      <point x="532" y="386" type="line"/>
      <point x="532" y="513" type="line"/>
      <point x="27" y="513" type="line"/>
      <point x="27" y="386" type="line"/>
      <point x="201" y="386" type="line"/>
    </contour>
    <contour>
      <point x="27" y="570" type="line"/>
      <point x="532" y="570" type="line"/>
      <point x="532" y="697" type="line"/>
      <point x="27" y="697" type="line"/>
    </contour>
  </outline>
</glyph>
<glyph name="numero" format="2">
  <advance width="1171"/>
  <unicode hex="2116"/>
  <anchor x="350" y="0" name="bottom"/>
  <anchor x="350" y="697" name="top"/>
  <outline>
    <contour>
      <point x="59" y="0" type="line"/>
      <point x="216" y="0" type="line"/>
      <point x="216" y="492" type="line"/>
      <point x="176" y="492" type="line"/>
      <point x="478" y="0" type="line"/>
      <point x="639" y="0" type="line"/>
      <point x="639" y="697" type="line"/>
      <point x="482" y="697" type="line"/>
      <point x="482" y="206" type="line"/>
      <point x="523" y="206" type="line"/>
      <point x="219" y="697" type="line"/>
      <point x="59" y="697" type="line"/>
    </contour>
    <contour>
      <point x="706" y="0" type="line"/>
      <point x="1136" y="0" type="line"/>
      <point x="1136" y="114" type="line"/>
      <point x="706" y="114" type="line"/>
    </contour>
    <contour>
      <point x="922" y="169" type="curve" smooth="yes"/>
      <point x="1051" y="169"/>
      <point x="1134" y="266"/>
      <point x="1134" y="379" type="curve" smooth="yes"/>
      <point x="1134" y="490"/>
      <point x="1052" y="587"/>
      <point x="922" y="587" type="curve" smooth="yes"/>
      <point x="793" y="587"/>
      <point x="712" y="490"/>
      <point x="712" y="379" type="curve" smooth="yes"/>
      <point x="712" y="268"/>
      <point x="793" y="169"/>
    </contour>
    <contour>
      <point x="922" y="275" type="curve" smooth="yes"/>
      <point x="856" y="275"/>
      <point x="841" y="327"/>
      <point x="841" y="379" type="curve" smooth="yes"/>
      <point x="841" y="429"/>
      <point x="856" y="480"/>
      <point x="922" y="480" type="curve" smooth="yes"/>
      <point x="989" y="480"/>
      <point x="1005" y="429"/>
      <point x="1005" y="379" type="curve" smooth="yes"/>
      <point x="1005" y="327"/>
      <point x="989" y="275"/>
    </contour>
  </outline>
</glyph>
<glyph name="Ohm" format="2">
  <advance width="832"/>
  <unicode hex="2126"/>
  <outline>
    <contour>
      <point x="82" y="0" type="line"/>
      <point x="378" y="0" type="line"/>
      <point x="378" y="108" type="line"/>
      <point x="286" y="143"/>
      <point x="228" y="236"/>
      <point x="228" y="352" type="curve" smooth="yes"/>
      <point x="228" y="479"/>
      <point x="296" y="565"/>
      <point x="416" y="565" type="curve" smooth="yes"/>
      <point x="534" y="565"/>
      <point x="603" y="482"/>
      <point x="603" y="354" type="curve" smooth="yes"/>
      <point x="603" y="242"/>
      <point x="549" y="151"/>
      <point x="454" y="108" type="curve"/>
      <point x="454" y="0" type="line"/>
      <point x="751" y="0" type="line"/>
      <point x="751" y="148" type="line"/>
      <point x="620" y="148" type="line"/>
      <point x="587" y="96" type="line"/>
      <point x="692" y="140"/>
      <point x="768" y="246"/>
      <point x="768" y="380" type="curve" smooth="yes"/>
      <point x="768" y="567"/>
      <point x="614" y="715"/>
      <point x="415" y="715" type="curve" smooth="yes"/>
      <point x="215" y="715"/>
      <point x="65" y="567"/>
      <point x="65" y="379" type="curve" smooth="yes"/>
      <point x="65" y="249"/>
      <point x="136" y="136"/>
      <point x="246" y="96" type="curve"/>
      <point x="212" y="148" type="line"/>
      <point x="82" y="148" type="line"/>
    </contour>
  </outline>
</glyph>
<glyph name="rightArrow" format="2">
  <advance width="1180"/>
  <unicode hex="2192"/>
  <outline>
    <contour>
      <point x="578" y="-25" type="line"/>
      <point x="1143" y="290" type="line"/>
      <point x="578" y="605" type="line"/>
      <point x="527" y="505" type="line"/>
      <point x="849" y="324" type="line"/>
      <point x="855" y="346" type="line"/>
      <point x="24" y="346" type="line"/>
      <point x="24" y="234" type="line"/>
      <point x="855" y="234" type="line"/>
      <point x="849" y="256" type="line"/>
      <point x="527" y="75" type="line"/>
    </contour>
  </outline>
</glyph>
<glyph name="emptyset" format="2">
  <advance width="697"/>
  <unicode hex="2205"/>
  <outline>
    <contour>
      <point x="54" y="32" type="line"/>
      <point x="148" y="32" type="line"/>
      <point x="184" y="77" type="line"/>
      <point x="232" y="48"/>
      <point x="288" y="32"/>
      <point x="348" y="32" type="curve" smooth="yes"/>
      <point x="524" y="32"/>
      <point x="665" y="174"/>
      <point x="665" y="349" type="curve" smooth="yes"/>
      <point x="665" y="437"/>
      <point x="630" y="516"/>
      <point x="572" y="574" type="curve"/>
      <point x="644" y="665" type="line"/>
      <point x="551" y="665" type="line"/>
      <point x="514" y="619" type="line"/>
      <point x="465" y="648"/>
      <point x="409" y="665"/>
      <point x="348" y="665" type="curve" smooth="yes"/>
      <point x="173" y="665"/>
      <point x="32" y="524"/>
      <point x="32" y="349" type="curve" smooth="yes"/>
      <point x="32" y="260"/>
      <point x="68" y="180"/>
      <point x="126" y="123" type="curve"/>
    </contour>
    <contour>
      <point x="183" y="195" type="line"/>
      <point x="145" y="235"/>
      <point x="123" y="290"/>
      <point x="123" y="349" type="curve" smooth="yes"/>
      <point x="123" y="474"/>
      <point x="224" y="574"/>
      <point x="349" y="574" type="curve" smooth="yes"/>
      <point x="388" y="574"/>
      <point x="425" y="564"/>
      <point x="458" y="546" type="curve"/>
    </contour>
    <contour>
      <point x="349" y="123" type="curve" smooth="yes"/>
      <point x="310" y="123"/>
      <point x="273" y="133"/>
      <point x="241" y="150" type="curve"/>
      <point x="515" y="502" type="line"/>
      <point x="553" y="462"/>
      <point x="575" y="408"/>
      <point x="575" y="349" type="curve" smooth="yes"/>
      <point x="575" y="224"/>
      <point x="474" y="123"/>
    </contour>
  </outline>
</glyph>
<glyph name="increment" format="2">
  <advance width="683"/>
  <unicode hex="2206"/>
  <outline>
    <contour>
      <point x="39" y="0" type="line"/>
      <point x="644" y="0" type="line"/>
      <point x="359" y="697" type="line"/>
      <point x="322" y="697" type="line"/>
    </contour>
    <contour>
      <point x="225" y="126" type="line"/>
      <point x="341" y="437" type="line"/>
      <point x="460" y="126" type="line"/>
    </contour>
  </outline>
</glyph>
<glyph name="product" format="2">
  <advance width="635"/>
  <unicode hex="220F"/>
  <outline>
    <contour>
      <point x="89" y="0" type="line"/>
      <point x="216" y="0" type="line"/>
      <point x="216" y="571" type="line"/>
      <point x="418" y="571" type="line"/>
      <point x="418" y="0" type="line"/>
      <point x="545" y="0" type="line"/>
      <point x="545" y="571" type="line"/>
      <point x="579" y="571" type="line"/>
      <point x="579" y="697" type="line"/>
      <point x="56" y="697" type="line"/>
      <point x="56" y="571" type="line"/>
      <point x="89" y="571" type="line"/>
    </contour>
  </outline>
</glyph>
<glyph name="summation" format="2">
  <advance width="656"/>
  <unicode hex="2211"/>
  <outline>
    <contour>
      <point x="49" y="0" type="line"/>
      <point x="602" y="0" type="line"/>
      <point x="602" y="143" type="line"/>
      <point x="228" y="143" type="line"/>
      <point x="251" y="79" type="line"/>
      <point x="531" y="348" type="line"/>
      <point x="251" y="618" type="line"/>
      <point x="228" y="554" type="line"/>
      <point x="602" y="554" type="line"/>
      <point x="602" y="697" type="line"/>
      <point x="49" y="697" type="line"/>
      <point x="49" y="634" type="line"/>
      <point x="326" y="348" type="line"/>
      <point x="49" y="63" type="line"/>
    </contour>
  </outline>
</glyph>
<glyph name="divisionslash" format="2">
  <advance width="452"/>
  <unicode hex="2215"/>
  <outline>
    <contour>
      <point x="30" y="0" type="line"/>
      <point x="142" y="0" type="line"/>
      <point x="422" y="697" type="line"/>
      <point x="309" y="697" type="line"/>
    </contour>
  </outline>
</glyph>
<glyph name="approxequal" format="2">
  <advance width="560"/>
  <unicode hex="2248"/>
  <outline>
    <contour>
      <point x="367" y="271" type="curve" smooth="yes"/>
      <point x="459" y="271"/>
      <point x="518" y="351"/>
      <point x="518" y="462" type="curve"/>
      <point x="399" y="462" type="line"/>
      <point x="399" y="416"/>
      <point x="385" y="378"/>
      <point x="367" y="378" type="curve" smooth="yes"/>
      <point x="313" y="378"/>
      <point x="323" y="483"/>
      <point x="191" y="483" type="curve" smooth="yes"/>
      <point x="101" y="483"/>
      <point x="42" y="411"/>
      <point x="42" y="304" type="curve"/>
      <point x="162" y="304" type="line"/>
      <point x="162" y="347"/>
      <point x="172" y="379"/>
      <point x="191" y="379" type="curve" smooth="yes"/>
      <point x="251" y="379"/>
      <point x="238" y="271"/>
    </contour>
    <contour>
      <point x="367" y="10" type="curve" smooth="yes"/>
      <point x="459" y="10"/>
      <point x="518" y="91"/>
      <point x="518" y="203" type="curve"/>
      <point x="399" y="203" type="line"/>
      <point x="399" y="154"/>
      <point x="385" y="117"/>
      <point x="367" y="117" type="curve" smooth="yes"/>
      <point x="313" y="117"/>
      <point x="323" y="222"/>
      <point x="191" y="222" type="curve" smooth="yes"/>
      <point x="100" y="222"/>
      <point x="42" y="148"/>
      <point x="42" y="42" type="curve"/>
      <point x="162" y="42" type="line"/>
      <point x="162" y="86"/>
      <point x="172" y="116"/>
      <point x="191" y="116" type="curve" smooth="yes"/>
      <point x="251" y="116"/>
      <point x="238" y="10"/>
    </contour>
  </outline>
</glyph>
<glyph name="lessequal" format="2">
  <advance width="560"/>
  <unicode hex="2264"/>
  <outline>
    <contour>
      <point x="538" y="101" type="line"/>
      <point x="538" y="226" type="line"/>
      <point x="68" y="349" type="line"/>
      <point x="68" y="303" type="line"/>
      <point x="538" y="426" type="line"/>
      <point x="538" y="550" type="line"/>
      <point x="28" y="404" type="line"/>
      <point x="28" y="249" type="line"/>
    </contour>
    <contour>
      <point x="28" y="-57" type="line"/>
      <point x="538" y="-57" type="line"/>
      <point x="538" y="62" type="line"/>
      <point x="28" y="62" type="line"/>
    </contour>
  </outline>
</glyph>
<glyph name="fi" format="2">
  <advance width="585"/>
  <unicode hex="FB01"/>
  <anchor x="311" y="0" name="caret_1"/>
  <outline>
    <contour>
      <point x="92" y="0" type="line"/>
      <point x="242" y="0" type="line"/>
      <point x="242" y="376" type="line"/>
      <point x="434" y="376" type="line"/>
      <point x="435" y="493" type="line"/>
      <point x="242" y="493" type="line"/>
      <point x="242" y="512" type="line" smooth="yes"/>
      <point x="242" y="553"/>
      <point x="265" y="587"/>
      <point x="327" y="587" type="curve" smooth="yes"/>
      <point x="381" y="587"/>
      <point x="425" y="573"/>
      <point x="463" y="548" type="curve"/>
      <point x="533" y="655" type="line"/>
      <point x="475" y="689"/>
      <point x="415" y="708"/>
      <point x="319" y="708" type="curve" smooth="yes"/>
      <point x="200" y="708"/>
      <point x="92" y="636"/>
      <point x="92" y="525" type="curve" smooth="yes"/>
      <point x="92" y="493" type="line"/>
      <point x="10" y="493" type="line"/>
      <point x="10" y="376" type="line"/>
      <point x="92" y="376" type="line"/>
    </contour>
    <contour>
      <point x="379" y="0" type="line"/>
      <point x="529" y="0" type="line"/>
      <point x="529" y="493" type="line"/>
      <point x="379" y="493" type="line"/>
    </contour>
  </outline>
</glyph>
<glyph name="fl" format="2">
  <advance width="627"/>
  <unicode hex="FB02"/>
  <anchor x="317" y="0" name="caret_1"/>
  <outline>
    <contour>
      <point x="517" y="-11" type="curve" smooth="yes"/>
      <point x="538" y="-11"/>
      <point x="572" y="-7"/>
      <point x="603" y="5" type="curve"/>
      <point x="603" y="133" type="line"/>
      <point x="590" y="129"/>
      <point x="580" y="127"/>
      <point x="571" y="127" type="curve" smooth="yes"/>
      <point x="552" y="127"/>
      <point x="543" y="136"/>
      <point x="543" y="152" type="curve" smooth="yes"/>
      <point x="543" y="651" type="line"/>
      <point x="475" y="689"/>
      <point x="417" y="708"/>
      <point x="323" y="708" type="curve" smooth="yes"/>
      <point x="202" y="708"/>
      <point x="92" y="635"/>
      <point x="92" y="525" type="curve" smooth="yes"/>
      <point x="92" y="493" type="line"/>
      <point x="10" y="493" type="line"/>
      <point x="10" y="376" type="line"/>
      <point x="92" y="376" type="line"/>
      <point x="92" y="0" type="line"/>
      <point x="243" y="0" type="line"/>
      <point x="243" y="376" type="line"/>
      <point x="326" y="376" type="line"/>
      <point x="326" y="493" type="line"/>
      <point x="243" y="493" type="line"/>
      <point x="243" y="522" type="line" smooth="yes"/>
      <point x="243" y="553"/>
      <point x="267" y="587"/>
      <point x="331" y="587" type="curve" smooth="yes"/>
      <point x="348" y="587"/>
      <point x="366" y="586"/>
      <point x="391" y="579" type="curve"/>
      <point x="391" y="125" type="line" smooth="yes"/>
      <point x="391" y="30"/>
      <point x="448" y="-11"/>
    </contour>
  </outline>
</glyph>
<glyph name="brevecomb.case" format="2">
  <advance width="380"/>
  <anchor x="190" y="697" name="_top"/>
  <anchor x="190" y="871" name="top"/>
  <outline>
    <contour>
      <point x="190" y="737" type="curve" smooth="yes"/>
      <point x="296" y="737"/>
      <point x="349" y="779"/>
      <point x="349" y="871" type="curve"/>
      <point x="243" y="871" type="line"/>
      <point x="243" y="840"/>
      <point x="218" y="824"/>
      <point x="190" y="824" type="curve" smooth="yes"/>
      <point x="164" y="824"/>
      <point x="137" y="838"/>
      <point x="137" y="871" type="curve"/>
      <point x="31" y="871" type="line"/>
      <point x="31" y="785"/>
      <point x="78" y="737"/>
    </contour>
  </outline>
</glyph>
<glyph name="brevecomb_acutecomb.case" format="2">
  <advance width="380"/>
  <guideline x="365" y="871" angle="0" name=""/>
  <guideline x="417" y="1021" angle="0" name=""/>
  <guideline x="271" y="1000" angle="0" name=""/>
  <anchor x="190" y="697" name="_top"/>
  <anchor x="190" y="1021" name="top"/>
  <outline>
    <contour>
      <point x="190" y="737" type="curve" smooth="yes"/>
      <point x="296" y="737"/>
      <point x="349" y="779"/>
      <point x="349" y="871" type="curve"/>
      <point x="253" y="871" type="line"/>
      <point x="253" y="840"/>
      <point x="228" y="824"/>
      <point x="190" y="824" type="curve" smooth="yes"/>
      <point x="154" y="824"/>
      <point x="127" y="838"/>
      <point x="127" y="871" type="curve"/>
      <point x="31" y="871" type="line"/>
      <point x="31" y="785"/>
      <point x="78" y="737"/>
    </contour>
    <contour>
      <point x="146" y="890" type="line"/>
      <point x="235" y="890" type="line"/>
      <point x="313" y="1000" type="line"/>
      <point x="196" y="1000" type="line"/>
    </contour>
  </outline>
</glyph>
<glyph name="brevecomb_gravecomb" format="2">
  <advance width="380"/>
  <guideline x="355" y="847" angle="0" name=""/>
  <guideline x="427" y="837" angle="0" name=""/>
  <anchor x="190" y="493" name="_top"/>
  <anchor x="190" y="837" name="top"/>
  <outline>
    <contour>
      <point x="190" y="543" type="curve" smooth="yes"/>
      <point x="296" y="543"/>
      <point x="349" y="585"/>
      <point x="349" y="697" type="curve"/>
      <point x="253" y="697" type="line"/>
      <point x="253" y="646"/>
      <point x="228" y="630"/>
      <point x="190" y="630" type="curve" smooth="yes"/>
      <point x="154" y="630"/>
      <point x="127" y="644"/>
      <point x="127" y="697" type="curve"/>
      <point x="31" y="697" type="line"/>
      <point x="31" y="591"/>
      <point x="78" y="543"/>
    </contour>
    <contour>
      <point x="146" y="716" type="line"/>
      <point x="235" y="716" type="line"/>
      <point x="179" y="837" type="line"/>
      <point x="60" y="837" type="line"/>
    </contour>
  </outline>
</glyph>
<glyph name="brevecomb_hookabovecomb" format="2">
  <advance width="380"/>
  <guideline x="355" y="847" angle="0" name=""/>
  <anchor x="190" y="493" name="_top"/>
  <anchor x="190" y="866" name="top"/>
  <outline>
    <contour>
      <point x="190" y="543" type="curve" smooth="yes"/>
      <point x="296" y="543"/>
      <point x="349" y="585"/>
      <point x="349" y="697" type="curve"/>
      <point x="253" y="697" type="line"/>
      <point x="253" y="646"/>
      <point x="228" y="630"/>
      <point x="190" y="630" type="curve" smooth="yes"/>
      <point x="154" y="630"/>
      <point x="127" y="644"/>
      <point x="127" y="697" type="curve"/>
      <point x="31" y="697" type="line"/>
      <point x="31" y="591"/>
      <point x="78" y="543"/>
    </contour>
    <contour>
      <point x="163" y="691" type="line"/>
      <point x="217" y="698"/>
      <point x="270" y="710"/>
      <point x="270" y="776" type="curve" smooth="yes"/>
      <point x="270" y="834"/>
      <point x="227" y="866"/>
      <point x="132" y="866" type="curve" smooth="yes"/>
      <point x="117" y="866" type="line"/>
      <point x="117" y="788" type="line"/>
      <point x="132" y="788" type="line" smooth="yes"/>
      <point x="157" y="788"/>
      <point x="184" y="788"/>
      <point x="184" y="767" type="curve" smooth="yes"/>
      <point x="184" y="750"/>
      <point x="170" y="745"/>
      <point x="147" y="743" type="curve"/>
    </contour>
  </outline>
</glyph>
<glyph name="brevecomb_tildecomb.case" format="2">
  <advance width="384"/>
  <guideline x="368" y="837" angle="0" name=""/>
  <guideline x="417" y="1021" angle="0" name=""/>
  <guideline x="271" y="1000" angle="0" name=""/>
  <anchor x="190" y="697" name="_top"/>
  <anchor x="192" y="1031" name="top"/>
  <outline>
    <contour>
      <point x="190" y="737" type="curve" smooth="yes"/>
      <point x="296" y="737"/>
      <point x="349" y="779"/>
      <point x="349" y="871" type="curve"/>
      <point x="253" y="871" type="line"/>
      <point x="253" y="840"/>
      <point x="228" y="824"/>
      <point x="190" y="824" type="curve" smooth="yes"/>
      <point x="154" y="824"/>
      <point x="127" y="838"/>
      <point x="127" y="871" type="curve"/>
      <point x="31" y="871" type="line"/>
      <point x="31" y="785"/>
      <point x="78" y="737"/>
    </contour>
    <contour>
      <point x="250" y="879" type="curve" smooth="yes"/>
      <point x="317" y="879"/>
      <point x="353" y="920"/>
      <point x="353" y="988" type="curve"/>
      <point x="268" y="988" type="line"/>
      <point x="268" y="969"/>
      <point x="261" y="954"/>
      <point x="240" y="954" type="curve" smooth="yes"/>
      <point x="207" y="954"/>
      <point x="199" y="998"/>
      <point x="132" y="998" type="curve" smooth="yes"/>
      <point x="73" y="998"/>
      <point x="32" y="955"/>
      <point x="32" y="888" type="curve"/>
      <point x="113" y="888" type="line"/>
      <point x="113" y="906"/>
      <point x="120" y="929"/>
      <point x="142" y="929" type="curve" smooth="yes"/>
      <point x="177" y="929"/>
      <point x="182" y="879"/>
    </contour>
  </outline>
</glyph>
<glyph name="bullet.ss03" format="2">
  <advance width="312"/>
  <outline>
    <contour>
      <point x="156" y="120" type="curve" smooth="yes"/>
      <point x="221" y="120"/>
      <point x="273" y="174"/>
      <point x="273" y="237" type="curve" smooth="yes"/>
      <point x="273" y="302"/>
      <point x="220" y="355"/>
      <point x="156" y="355" type="curve" smooth="yes"/>
      <point x="91" y="355"/>
      <point x="39" y="301"/>
      <point x="39" y="237" type="curve" smooth="yes"/>
      <point x="39" y="173"/>
      <point x="91" y="120"/>
    </contour>
  </outline>
</glyph>
<glyph name="caroncomb.alt" format="2">
  <advance width="275"/>
  <anchor x="138" y="493" name="_topright"/>
  <outline>
    <contour>
      <point x="31" y="463" type="line"/>
      <point x="118" y="463" type="line"/>
      <point x="244" y="697" type="line"/>
      <point x="86" y="697" type="line"/>
    </contour>
  </outline>
</glyph>
<glyph name="circumflexcomb.case" format="2">
  <advance width="382"/>
  <guideline x="367" y="741" angle="0" name=""/>
  <anchor x="191" y="697" name="_top"/>
  <anchor x="191" y="905" name="top"/>
  <outline>
    <contour>
      <point x="31" y="741" type="line"/>
      <point x="150" y="741" type="line"/>
      <point x="191" y="797" type="line"/>
      <point x="232" y="741" type="line"/>
      <point x="351" y="741" type="line"/>
      <point x="191" y="924" type="line"/>
    </contour>
  </outline>
</glyph>
<glyph name="circumflexcomb_acutecomb.case" format="2">
  <advance width="469"/>
  <guideline x="462" y="871" angle="0" name=""/>
  <guideline x="367" y="741" angle="0" name=""/>
  <guideline x="271" y="1000" angle="0" name=""/>
  <anchor x="191" y="697" name="_top"/>
  <anchor x="191" y="988" name="top"/>
  <outline>
    <contour>
      <point x="31" y="741" type="line"/>
      <point x="150" y="741" type="line"/>
      <point x="191" y="777" type="line"/>
      <point x="232" y="741" type="line"/>
      <point x="351" y="741" type="line"/>
      <point x="191" y="864" type="line"/>
    </contour>
    <contour>
      <point x="256" y="857" type="line"/>
      <point x="345" y="857" type="line"/>
      <point x="438" y="988" type="line"/>
      <point x="316" y="988" type="line"/>
    </contour>
  </outline>
</glyph>
<glyph name="circumflexcomb_gravecomb.case" format="2">
  <advance width="410"/>
  <guideline x="443" y="784" angle="0" name=""/>
  <anchor x="191" y="697" name="_top"/>
  <anchor x="190" y="988" name="top"/>
  <outline>
    <contour>
      <point x="31" y="741" type="line"/>
      <point x="150" y="741" type="line"/>
      <point x="191" y="777" type="line"/>
      <point x="232" y="741" type="line"/>
      <point x="351" y="741" type="line"/>
      <point x="191" y="864" type="line"/>
    </contour>
    <contour>
      <point x="290" y="857" type="line"/>
      <point x="379" y="857" type="line"/>
      <point x="319" y="988" type="line"/>
      <point x="197" y="988" type="line"/>
    </contour>
  </outline>
</glyph>
<glyph name="circumflexcomb_gravecomb" format="2">
  <advance width="410"/>
  <guideline x="443" y="784" angle="0" name=""/>
  <anchor x="191" y="493" name="_top"/>
  <anchor x="190" y="784" name="top"/>
  <outline>
    <contour>
      <point x="31" y="537" type="line"/>
      <point x="150" y="537" type="line"/>
      <point x="191" y="573" type="line"/>
      <point x="232" y="537" type="line"/>
      <point x="351" y="537" type="line"/>
      <point x="191" y="700" type="line"/>
    </contour>
    <contour>
      <point x="290" y="653" type="line"/>
      <point x="379" y="653" type="line"/>
      <point x="319" y="784" type="line"/>
      <point x="197" y="784" type="line"/>
    </contour>
  </outline>
</glyph>
<glyph name="circumflexcomb_hookabovecomb" format="2">
  <advance width="427"/>
  <guideline x="443" y="784" angle="0" name=""/>
  <anchor x="191" y="493" name="_top"/>
  <anchor x="211" y="905" name="top"/>
  <outline>
    <contour>
      <point x="31" y="537" type="line"/>
      <point x="150" y="537" type="line"/>
      <point x="191" y="573" type="line"/>
      <point x="232" y="537" type="line"/>
      <point x="351" y="537" type="line"/>
      <point x="191" y="700" type="line"/>
    </contour>
    <contour>
      <point x="289" y="632" type="line"/>
      <point x="343" y="639"/>
      <point x="396" y="651"/>
      <point x="396" y="717" type="curve" smooth="yes"/>
      <point x="396" y="775"/>
      <point x="353" y="807"/>
      <point x="258" y="807" type="curve" smooth="yes"/>
      <point x="243" y="807" type="line"/>
      <point x="243" y="729" type="line"/>
      <point x="258" y="729" type="line" smooth="yes"/>
      <point x="283" y="729"/>
      <point x="310" y="729"/>
      <point x="310" y="708" type="curve" smooth="yes"/>
      <point x="310" y="691"/>
      <point x="296" y="686"/>
      <point x="273" y="684" type="curve"/>
    </contour>
  </outline>
</glyph>
<glyph name="circumflexcomb_tildecomb" format="2">
  <advance width="383"/>
  <guideline x="368" y="797" angle="0" name=""/>
  <anchor x="192" y="493" name="_top"/>
  <anchor x="192" y="807" name="top"/>
  <outline>
    <contour>
      <point x="31" y="537" type="line"/>
      <point x="150" y="537" type="line"/>
      <point x="191" y="593" type="line"/>
      <point x="232" y="537" type="line"/>
      <point x="351" y="537" type="line"/>
      <point x="191" y="700" type="line"/>
    </contour>
    <contour>
      <point x="259" y="688" type="curve" smooth="yes"/>
      <point x="316" y="688"/>
      <point x="352" y="729"/>
      <point x="352" y="797" type="curve"/>
      <point x="267" y="797" type="line"/>
      <point x="267" y="778"/>
      <point x="260" y="773"/>
      <point x="249" y="773" type="curve" smooth="yes"/>
      <point x="226" y="773"/>
      <point x="198" y="807"/>
      <point x="131" y="807" type="curve" smooth="yes"/>
      <point x="72" y="807"/>
      <point x="31" y="764"/>
      <point x="31" y="697" type="curve"/>
      <point x="112" y="697" type="line"/>
      <point x="112" y="715"/>
      <point x="119" y="728"/>
      <point x="141" y="728" type="curve" smooth="yes"/>
      <point x="186" y="728"/>
      <point x="191" y="688"/>
    </contour>
  </outline>
</glyph>
<glyph name="divide.ss03" format="2">
  <advance width="560"/>
  <outline>
    <contour>
      <point x="52" y="234" type="line"/>
      <point x="508" y="234" type="line"/>
      <point x="508" y="346" type="line"/>
      <point x="52" y="346" type="line"/>
    </contour>
    <contour>
      <point x="280" y="13" type="curve" smooth="yes"/>
      <point x="328" y="13"/>
      <point x="365" y="50"/>
      <point x="365" y="99" type="curve" smooth="yes"/>
      <point x="365" y="147"/>
      <point x="328" y="184"/>
      <point x="280" y="184" type="curve" smooth="yes"/>
      <point x="232" y="184"/>
      <point x="195" y="147"/>
      <point x="195" y="99" type="curve" smooth="yes"/>
      <point x="195" y="51"/>
      <point x="233" y="13"/>
    </contour>
    <contour>
      <point x="280" y="396" type="curve" smooth="yes"/>
      <point x="328" y="396"/>
      <point x="365" y="434"/>
      <point x="365" y="482" type="curve" smooth="yes"/>
      <point x="365" y="530"/>
      <point x="328" y="567"/>
      <point x="280" y="567" type="curve" smooth="yes"/>
      <point x="232" y="567"/>
      <point x="195" y="530"/>
      <point x="195" y="482" type="curve" smooth="yes"/>
      <point x="195" y="434"/>
      <point x="233" y="396"/>
    </contour>
  </outline>
</glyph>
<glyph name="eight.dnom" format="2">
  <advance width="383"/>
  <outline>
    <contour>
      <point x="192" y="-7" type="curve" smooth="yes"/>
      <point x="279" y="-7"/>
      <point x="358" y="37"/>
      <point x="358" y="128" type="curve" smooth="yes"/>
      <point x="358" y="162"/>
      <point x="348" y="200"/>
      <point x="313" y="227" type="curve"/>
      <point x="331" y="246"/>
      <point x="339" y="268"/>
      <point x="339" y="298" type="curve" smooth="yes"/>
      <point x="339" y="378"/>
      <point x="268" y="425"/>
      <point x="192" y="425" type="curve" smooth="yes"/>
      <point x="113" y="425"/>
      <point x="43" y="377"/>
      <point x="43" y="297" type="curve" smooth="yes"/>
      <point x="43" y="265"/>
      <point x="55" y="244"/>
      <point x="70" y="227" type="curve"/>
      <point x="37" y="201"/>
      <point x="25" y="166"/>
      <point x="25" y="128" type="curve" smooth="yes"/>
      <point x="25" y="37"/>
      <point x="104" y="-7"/>
    </contour>
    <contour>
      <point x="192" y="87" type="curve" smooth="yes"/>
      <point x="152" y="87"/>
      <point x="125" y="104"/>
      <point x="125" y="138" type="curve" smooth="yes"/>
      <point x="125" y="172"/>
      <point x="153" y="187"/>
      <point x="192" y="187" type="curve" smooth="yes"/>
      <point x="231" y="187"/>
      <point x="259" y="172"/>
      <point x="259" y="138" type="curve" smooth="yes"/>
      <point x="259" y="104"/>
      <point x="231" y="87"/>
    </contour>
    <contour>
      <point x="192" y="256" type="curve" smooth="yes"/>
      <point x="163" y="256"/>
      <point x="142" y="268"/>
      <point x="142" y="291" type="curve" smooth="yes"/>
      <point x="142" y="314"/>
      <point x="159" y="329"/>
      <point x="192" y="329" type="curve" smooth="yes"/>
      <point x="222" y="329"/>
      <point x="240" y="315"/>
      <point x="240" y="291" type="curve" smooth="yes"/>
      <point x="240" y="268"/>
      <point x="220" y="256"/>
    </contour>
  </outline>
</glyph>
<glyph name="eight.numr" format="2">
  <advance width="383"/>
  <outline>
    <contour>
      <point x="192" y="272" type="curve" smooth="yes"/>
      <point x="279" y="272"/>
      <point x="358" y="316"/>
      <point x="358" y="406" type="curve" smooth="yes"/>
      <point x="358" y="441"/>
      <point x="348" y="479"/>
      <point x="313" y="506" type="curve"/>
      <point x="331" y="525"/>
      <point x="339" y="546"/>
      <point x="339" y="577" type="curve" smooth="yes"/>
      <point x="339" y="657"/>
      <point x="268" y="704"/>
      <point x="192" y="704" type="curve" smooth="yes"/>
      <point x="113" y="704"/>
      <point x="43" y="656"/>
      <point x="43" y="576" type="curve" smooth="yes"/>
      <point x="43" y="544"/>
      <point x="54" y="524"/>
      <point x="70" y="506" type="curve"/>
      <point x="37" y="480"/>
      <point x="25" y="445"/>
      <point x="25" y="406" type="curve" smooth="yes"/>
      <point x="25" y="316"/>
      <point x="104" y="272"/>
    </contour>
    <contour>
      <point x="192" y="366" type="curve" smooth="yes"/>
      <point x="152" y="366"/>
      <point x="125" y="383"/>
      <point x="125" y="416" type="curve" smooth="yes"/>
      <point x="125" y="451"/>
      <point x="153" y="466"/>
      <point x="192" y="466" type="curve" smooth="yes"/>
      <point x="231" y="466"/>
      <point x="259" y="451"/>
      <point x="259" y="416" type="curve" smooth="yes"/>
      <point x="259" y="384"/>
      <point x="232" y="366"/>
    </contour>
    <contour>
      <point x="192" y="533" type="curve" smooth="yes"/>
      <point x="163" y="533"/>
      <point x="142" y="547"/>
      <point x="142" y="570" type="curve" smooth="yes"/>
      <point x="142" y="593"/>
      <point x="159" y="608"/>
      <point x="192" y="608" type="curve" smooth="yes"/>
      <point x="222" y="608"/>
      <point x="240" y="594"/>
      <point x="240" y="570" type="curve" smooth="yes"/>
      <point x="240" y="547"/>
      <point x="220" y="533"/>
    </contour>
  </outline>
</glyph>
<glyph name="ellipsis.ss03" format="2">
  <advance width="712"/>
  <outline>
    <contour>
      <point x="593" y="-11" type="curve" smooth="yes"/>
      <point x="641" y="-11"/>
      <point x="678" y="27"/>
      <point x="678" y="75" type="curve" smooth="yes"/>
      <point x="678" y="122"/>
      <point x="641" y="159"/>
      <point x="593" y="159" type="curve" smooth="yes"/>
      <point x="545" y="159"/>
      <point x="509" y="122"/>
      <point x="509" y="75" type="curve" smooth="yes"/>
      <point x="509" y="27"/>
      <point x="546" y="-11"/>
    </contour>
    <contour>
      <point x="121" y="-11" type="curve" smooth="yes"/>
      <point x="169" y="-11"/>
      <point x="205" y="27"/>
      <point x="205" y="75" type="curve" smooth="yes"/>
      <point x="205" y="122"/>
      <point x="169" y="159"/>
      <point x="121" y="159" type="curve" smooth="yes"/>
      <point x="73" y="159"/>
      <point x="36" y="122"/>
      <point x="36" y="75" type="curve" smooth="yes"/>
      <point x="36" y="27"/>
      <point x="74" y="-11"/>
    </contour>
    <contour>
      <point x="357" y="-11" type="curve" smooth="yes"/>
      <point x="405" y="-11"/>
      <point x="441" y="27"/>
      <point x="441" y="75" type="curve" smooth="yes"/>
      <point x="441" y="122"/>
      <point x="405" y="159"/>
      <point x="357" y="159" type="curve" smooth="yes"/>
      <point x="309" y="159"/>
      <point x="273" y="122"/>
      <point x="273" y="75" type="curve" smooth="yes"/>
      <point x="273" y="27"/>
      <point x="310" y="-11"/>
    </contour>
  </outline>
</glyph>
<glyph name="exclamdown.ss03" format="2">
  <advance width="271"/>
  <outline>
    <contour>
      <point x="61" y="-204" type="line"/>
      <point x="210" y="-204" type="line"/>
      <point x="193" y="274" type="line"/>
      <point x="79" y="274" type="line"/>
    </contour>
    <contour>
      <point x="136" y="333" type="curve" smooth="yes"/>
      <point x="184" y="333"/>
      <point x="221" y="370"/>
      <point x="221" y="418" type="curve" smooth="yes"/>
      <point x="221" y="466"/>
      <point x="183" y="504"/>
      <point x="136" y="504" type="curve" smooth="yes"/>
      <point x="88" y="504"/>
      <point x="51" y="466"/>
      <point x="51" y="418" type="curve" smooth="yes"/>
      <point x="51" y="370"/>
      <point x="88" y="333"/>
    </contour>
  </outline>
</glyph>
<glyph name="f_f" format="2">
  <advance width="657"/>
  <anchor x="317" y="0" name="caret_1"/>
  <outline>
    <contour>
      <point x="92" y="0" type="line"/>
      <point x="242" y="0" type="line"/>
      <point x="242" y="376" type="line"/>
      <point x="391" y="376" type="line"/>
      <point x="391" y="0" type="line"/>
      <point x="542" y="0" type="line"/>
      <point x="542" y="376" type="line"/>
      <point x="640" y="376" type="line"/>
      <point x="640" y="493" type="line"/>
      <point x="542" y="493" type="line"/>
      <point x="542" y="536" type="line" smooth="yes"/>
      <point x="542" y="562"/>
      <point x="548" y="583"/>
      <point x="573" y="583" type="curve" smooth="yes"/>
      <point x="586" y="583"/>
      <point x="599" y="577"/>
      <point x="611" y="571" type="curve"/>
      <point x="659" y="686" type="line"/>
      <point x="629" y="699"/>
      <point x="600" y="708"/>
      <point x="556" y="708" type="curve" smooth="yes"/>
      <point x="514" y="708"/>
      <point x="474" y="700"/>
      <point x="444" y="676" type="curve"/>
      <point x="404" y="699"/>
      <point x="357" y="708"/>
      <point x="312" y="708" type="curve" smooth="yes"/>
      <point x="197" y="708"/>
      <point x="92" y="642"/>
      <point x="92" y="522" type="curve" smooth="yes"/>
      <point x="92" y="493" type="line"/>
      <point x="10" y="493" type="line"/>
      <point x="10" y="376" type="line"/>
      <point x="92" y="376" type="line"/>
    </contour>
    <contour>
      <point x="242" y="493" type="line"/>
      <point x="242" y="519" type="line" smooth="yes"/>
      <point x="242" y="559"/>
      <point x="262" y="587"/>
      <point x="319" y="587" type="curve" smooth="yes"/>
      <point x="350" y="587"/>
      <point x="371" y="580"/>
      <point x="392" y="569" type="curve"/>
      <point x="392" y="564"/>
      <point x="392" y="558"/>
      <point x="392" y="553" type="curve" smooth="yes"/>
      <point x="392" y="493" type="line"/>
    </contour>
  </outline>
</glyph>
<glyph name="five.dnom" format="2">
  <advance width="368"/>
  <outline>
    <contour>
      <point x="182" y="-7" type="curve" smooth="yes"/>
      <point x="276" y="-7"/>
      <point x="342" y="69"/>
      <point x="342" y="149" type="curve" smooth="yes"/>
      <point x="342" y="225"/>
      <point x="282" y="294"/>
      <point x="194" y="294" type="curve" smooth="yes"/>
      <point x="171" y="294"/>
      <point x="141" y="293"/>
      <point x="110" y="260" type="curve"/>
      <point x="144" y="251" type="line"/>
      <point x="167" y="367" type="line"/>
      <point x="114" y="325" type="line"/>
      <point x="324" y="325" type="line"/>
      <point x="324" y="418" type="line"/>
      <point x="78" y="418" type="line"/>
      <point x="35" y="195" type="line"/>
      <point x="126" y="172" type="line"/>
      <point x="133" y="185"/>
      <point x="149" y="202"/>
      <point x="180" y="202" type="curve" smooth="yes"/>
      <point x="225" y="202"/>
      <point x="236" y="174"/>
      <point x="236" y="149" type="curve" smooth="yes"/>
      <point x="236" y="123"/>
      <point x="224" y="88"/>
      <point x="180" y="88" type="curve" smooth="yes"/>
      <point x="138" y="88"/>
      <point x="121" y="119"/>
      <point x="120" y="142" type="curve"/>
      <point x="23" y="126" type="line"/>
      <point x="31" y="53"/>
      <point x="98" y="-7"/>
    </contour>
  </outline>
</glyph>
<glyph name="five.lf" format="2">
  <advance width="610"/>
  <outline>
    <contour>
      <point x="302" y="-11" type="curve" smooth="yes"/>
      <point x="457" y="-11"/>
      <point x="565" y="114"/>
      <point x="565" y="247" type="curve" smooth="yes"/>
      <point x="565" y="373"/>
      <point x="467" y="487"/>
      <point x="321" y="487" type="curve" smooth="yes"/>
      <point x="282" y="487"/>
      <point x="228" y="481"/>
      <point x="176" y="425" type="curve"/>
      <point x="226" y="411" type="line"/>
      <point x="267" y="620" type="line"/>
      <point x="187" y="557" type="line"/>
      <point x="535" y="557" type="line"/>
      <point x="535" y="697" type="line"/>
      <point x="131" y="697" type="line"/>
      <point x="61" y="326" type="line"/>
      <point x="200" y="292" type="line"/>
      <point x="216" y="319"/>
      <point x="246" y="346"/>
      <point x="300" y="346" type="curve" smooth="yes"/>
      <point x="380" y="346"/>
      <point x="405" y="296"/>
      <point x="405" y="247" type="curve" smooth="yes"/>
      <point x="405" y="195"/>
      <point x="379" y="133"/>
      <point x="300" y="133" type="curve" smooth="yes"/>
      <point x="223" y="133"/>
      <point x="191" y="190"/>
      <point x="189" y="231" type="curve"/>
      <point x="41" y="206" type="line"/>
      <point x="56" y="86"/>
      <point x="164" y="-11"/>
    </contour>
  </outline>
</glyph>
<glyph name="four.lf" format="2">
  <advance width="617"/>
  <outline>
    <contour>
      <point x="323" y="0" type="line"/>
      <point x="474" y="0" type="line"/>
      <point x="474" y="163" type="line"/>
      <point x="584" y="163" type="line"/>
      <point x="584" y="303" type="line"/>
      <point x="474" y="303" type="line"/>
      <point x="474" y="697" type="line"/>
      <point x="344" y="697" type="line"/>
      <point x="31" y="278" type="line"/>
      <point x="31" y="163" type="line"/>
      <point x="323" y="163" type="line"/>
    </contour>
    <contour>
      <point x="145" y="251" type="line"/>
      <point x="344" y="532" type="line"/>
      <point x="323" y="556" type="line"/>
      <point x="323" y="303" type="line"/>
      <point x="146" y="303" type="line"/>
    </contour>
  </outline>
</glyph>
<glyph name="nine.dnom" format="2">
  <advance width="363"/>
  <outline>
    <contour>
      <point x="79" y="0" type="line"/>
      <point x="195" y="0" type="line"/>
      <point x="319" y="193" type="line" smooth="yes"/>
      <point x="335" y="218"/>
      <point x="343" y="246"/>
      <point x="343" y="274" type="curve" smooth="yes"/>
      <point x="343" y="364"/>
      <point x="270" y="425"/>
      <point x="181" y="425" type="curve" smooth="yes"/>
      <point x="94" y="425"/>
      <point x="20" y="364"/>
      <point x="20" y="273" type="curve" smooth="yes"/>
      <point x="20" y="191"/>
      <point x="84" y="129"/>
      <point x="166" y="129" type="curve" smooth="yes"/>
      <point x="175" y="129"/>
      <point x="183" y="129"/>
      <point x="192" y="129" type="curve"/>
      <point x="180" y="144" type="line"/>
    </contour>
    <contour>
      <point x="181" y="217" type="curve" smooth="yes"/>
      <point x="148" y="217"/>
      <point x="121" y="236"/>
      <point x="121" y="273" type="curve" smooth="yes"/>
      <point x="121" y="311"/>
      <point x="147" y="329"/>
      <point x="181" y="329" type="curve" smooth="yes"/>
      <point x="214" y="329"/>
      <point x="242" y="311"/>
      <point x="242" y="273" type="curve" smooth="yes"/>
      <point x="242" y="237"/>
      <point x="215" y="217"/>
    </contour>
  </outline>
</glyph>
<glyph name="one.lf" format="2">
  <advance width="405"/>
  <outline>
    <contour>
      <point x="194" y="0" type="line"/>
      <point x="345" y="0" type="line"/>
      <point x="345" y="697" type="line"/>
      <point x="194" y="697" type="line"/>
      <point x="18" y="590" type="line"/>
      <point x="18" y="446" type="line"/>
      <point x="194" y="544" type="line"/>
    </contour>
  </outline>
</glyph>
<glyph name="question.ss03" format="2">
  <advance width="485"/>
  <outline>
    <contour>
      <point x="177" y="217" type="line"/>
      <point x="304" y="217" type="line"/>
      <point x="304" y="232" type="line" smooth="yes"/>
      <point x="304" y="353"/>
      <point x="467" y="339"/>
      <point x="467" y="515" type="curve" smooth="yes"/>
      <point x="467" y="655"/>
      <point x="364" y="708"/>
      <point x="251" y="708" type="curve" smooth="yes"/>
      <point x="110" y="708"/>
      <point x="13" y="625"/>
      <point x="13" y="477" type="curve"/>
      <point x="146" y="477" type="line"/>
      <point x="145" y="547"/>
      <point x="178" y="583"/>
      <point x="248" y="583" type="curve" smooth="yes"/>
      <point x="303" y="583"/>
      <point x="336" y="562"/>
      <point x="336" y="518" type="curve" smooth="yes"/>
      <point x="336" y="422"/>
      <point x="177" y="424"/>
      <point x="177" y="243" type="curve" smooth="yes"/>
    </contour>
    <contour>
      <point x="244" y="-11" type="curve" smooth="yes"/>
      <point x="292" y="-11"/>
      <point x="329" y="27"/>
      <point x="329" y="75" type="curve" smooth="yes"/>
      <point x="329" y="123"/>
      <point x="292" y="160"/>
      <point x="244" y="160" type="curve" smooth="yes"/>
      <point x="196" y="160"/>
      <point x="159" y="123"/>
      <point x="159" y="75" type="curve" smooth="yes"/>
      <point x="159" y="27"/>
      <point x="197" y="-11"/>
    </contour>
  </outline>
</glyph>
<glyph name="questiondown.ss03" format="2">
  <advance width="485"/>
  <outline>
    <contour>
      <point x="234" y="-215" type="curve" smooth="yes"/>
      <point x="375" y="-215"/>
      <point x="472" y="-132"/>
      <point x="472" y="16" type="curve"/>
      <point x="339" y="16" type="line"/>
      <point x="340" y="-54"/>
      <point x="307" y="-90"/>
      <point x="237" y="-90" type="curve" smooth="yes"/>
      <point x="182" y="-90"/>
      <point x="149" y="-69"/>
      <point x="149" y="-25" type="curve" smooth="yes"/>
      <point x="149" y="71"/>
      <point x="308" y="69"/>
      <point x="308" y="250" type="curve" smooth="yes"/>
      <point x="308" y="276" type="line"/>
      <point x="181" y="276" type="line"/>
      <point x="181" y="261" type="line" smooth="yes"/>
      <point x="181" y="140"/>
      <point x="18" y="154"/>
      <point x="18" y="-22" type="curve" smooth="yes"/>
      <point x="18" y="-162"/>
      <point x="121" y="-215"/>
    </contour>
    <contour>
      <point x="241" y="333" type="curve" smooth="yes"/>
      <point x="289" y="333"/>
      <point x="326" y="370"/>
      <point x="326" y="418" type="curve" smooth="yes"/>
      <point x="326" y="466"/>
      <point x="288" y="504"/>
      <point x="241" y="504" type="curve" smooth="yes"/>
      <point x="193" y="504"/>
      <point x="156" y="466"/>
      <point x="156" y="418" type="curve" smooth="yes"/>
      <point x="156" y="370"/>
      <point x="193" y="333"/>
    </contour>
  </outline>
</glyph>
<glyph name="ringcomb.case" format="2">
  <advance width="310"/>
  <anchor x="155" y="543" name="_top"/>
  <anchor x="213" y="628" name="top"/>
  <outline>
    <contour>
      <point x="155" y="520" type="curve" smooth="yes"/>
      <point x="223" y="520"/>
      <point x="279" y="575"/>
      <point x="279" y="644" type="curve" smooth="yes"/>
      <point x="279" y="714"/>
      <point x="221" y="768"/>
      <point x="155" y="768" type="curve" smooth="yes"/>
      <point x="86" y="768"/>
      <point x="31" y="712"/>
      <point x="31" y="644" type="curve" smooth="yes"/>
      <point x="31" y="579"/>
      <point x="85" y="520"/>
    </contour>
    <contour>
      <point x="155" y="600" type="curve" smooth="yes"/>
      <point x="130" y="600"/>
      <point x="112" y="619"/>
      <point x="112" y="646" type="curve" smooth="yes"/>
      <point x="112" y="670"/>
      <point x="127" y="688"/>
      <point x="155" y="688" type="curve" smooth="yes"/>
      <point x="184" y="688"/>
      <point x="199" y="671"/>
      <point x="199" y="646" type="curve" smooth="yes"/>
      <point x="199" y="619"/>
      <point x="182" y="600"/>
    </contour>
  </outline>
</glyph>
<glyph name="seven.lf" format="2">
  <advance width="560"/>
  <outline>
    <contour>
      <point x="75" y="0" type="line"/>
      <point x="243" y="0" type="line"/>
      <point x="533" y="589" type="line"/>
      <point x="533" y="697" type="line"/>
      <point x="28" y="697" type="line"/>
      <point x="28" y="557" type="line"/>
      <point x="426" y="557" type="line"/>
      <point x="383" y="617" type="line"/>
    </contour>
  </outline>
</glyph>
<glyph name="three.dnom" format="2">
  <advance width="370"/>
  <outline>
    <contour>
      <point x="183" y="-6" type="curve" smooth="yes"/>
      <point x="280" y="-6"/>
      <point x="346" y="51"/>
      <point x="346" y="133" type="curve" smooth="yes"/>
      <point x="346" y="175"/>
      <point x="328" y="210"/>
      <point x="288" y="230" type="curve"/>
      <point x="309" y="245"/>
      <point x="322" y="273"/>
      <point x="322" y="306" type="curve" smooth="yes"/>
      <point x="322" y="376"/>
      <point x="265" y="424"/>
      <point x="186" y="424" type="curve" smooth="yes"/>
      <point x="100" y="424"/>
      <point x="39" y="369"/>
      <point x="39" y="294" type="curve"/>
      <point x="137" y="287" type="line"/>
      <point x="138" y="314"/>
      <point x="154" y="330"/>
      <point x="182" y="330" type="curve" smooth="yes"/>
      <point x="208" y="330"/>
      <point x="221" y="317"/>
      <point x="221" y="296" type="curve" smooth="yes"/>
      <point x="221" y="271"/>
      <point x="206" y="256"/>
      <point x="164" y="256" type="curve"/>
      <point x="164" y="178" type="line"/>
      <point x="227" y="178"/>
      <point x="247" y="163"/>
      <point x="247" y="134" type="curve" smooth="yes"/>
      <point x="247" y="105"/>
      <point x="226" y="88"/>
      <point x="187" y="88" type="curve" smooth="yes"/>
      <point x="147" y="88"/>
      <point x="120" y="110"/>
      <point x="120" y="145" type="curve"/>
      <point x="21" y="138" type="line"/>
      <point x="21" y="52"/>
      <point x="86" y="-6"/>
    </contour>
  </outline>
</glyph>
<glyph name="three.numr" format="2">
  <advance width="370"/>
  <outline>
    <contour>
      <point x="183" y="273" type="curve" smooth="yes"/>
      <point x="280" y="273"/>
      <point x="346" y="330"/>
      <point x="346" y="412" type="curve" smooth="yes"/>
      <point x="346" y="453"/>
      <point x="328" y="488"/>
      <point x="288" y="508" type="curve"/>
      <point x="309" y="524"/>
      <point x="322" y="551"/>
      <point x="322" y="585" type="curve" smooth="yes"/>
      <point x="322" y="655"/>
      <point x="266" y="703"/>
      <point x="186" y="703" type="curve" smooth="yes"/>
      <point x="100" y="703"/>
      <point x="39" y="648"/>
      <point x="39" y="573" type="curve"/>
      <point x="137" y="566" type="line"/>
      <point x="138" y="593"/>
      <point x="154" y="609"/>
      <point x="182" y="609" type="curve" smooth="yes"/>
      <point x="208" y="609"/>
      <point x="221" y="596"/>
      <point x="221" y="573" type="curve" smooth="yes"/>
      <point x="221" y="549"/>
      <point x="206" y="535"/>
      <point x="164" y="535" type="curve"/>
      <point x="164" y="457" type="line"/>
      <point x="225" y="457"/>
      <point x="247" y="443"/>
      <point x="247" y="413" type="curve" smooth="yes"/>
      <point x="247" y="384"/>
      <point x="226" y="367"/>
      <point x="187" y="367" type="curve" smooth="yes"/>
      <point x="147" y="367"/>
      <point x="120" y="389"/>
      <point x="120" y="423" type="curve"/>
      <point x="21" y="417" type="line"/>
      <point x="21" y="331"/>
      <point x="86" y="273"/>
    </contour>
  </outline>
</glyph>
<glyph name="two.dnom" format="2">
  <advance width="353"/>
  <outline>
    <contour>
      <point x="29" y="0" type="line"/>
      <point x="328" y="0" type="line"/>
      <point x="328" y="93" type="line"/>
      <point x="135" y="93" type="line"/>
      <point x="135" y="121"/>
      <point x="312" y="159.29917404313403"/>
      <point x="312" y="284" type="curve" smooth="yes"/>
      <point x="312" y="367"/>
      <point x="253" y="423"/>
      <point x="175" y="423" type="curve" smooth="yes"/>
      <point x="76" y="423"/>
      <point x="23" y="336"/>
      <point x="23" y="263" type="curve"/>
      <point x="120" y="256" type="line"/>
      <point x="123" y="283"/>
      <point x="130" y="326"/>
      <point x="173" y="326" type="curve" smooth="yes"/>
      <point x="203" y="326"/>
      <point x="213" y="304"/>
      <point x="213" y="281" type="curve" smooth="yes"/>
      <point x="213" y="195"/>
      <point x="29" y="189"/>
      <point x="29" y="72" type="curve"/>
    </contour>
  </outline>
</glyph>
<glyph name="two.lf" format="2">
  <advance width="585"/>
  <outline>
    <contour>
      <point x="50" y="0" type="line"/>
      <point x="542" y="0" type="line"/>
      <point x="542" y="140" type="line"/>
      <point x="210" y="140" type="line"/>
      <point x="170" y="76" type="line"/>
      <point x="384" y="163"/>
      <point x="515" y="310"/>
      <point x="515" y="476" type="curve" smooth="yes"/>
      <point x="515" y="614"/>
      <point x="420" y="705"/>
      <point x="290" y="705" type="curve" smooth="yes"/>
      <point x="128" y="705"/>
      <point x="41" y="566"/>
      <point x="41" y="444" type="curve"/>
      <point x="189" y="432" type="line"/>
      <point x="193" y="486"/>
      <point x="210" y="559"/>
      <point x="286" y="559" type="curve" smooth="yes"/>
      <point x="343" y="559"/>
      <point x="365" y="519"/>
      <point x="365" y="471" type="curve" smooth="yes"/>
      <point x="365" y="322"/>
      <point x="149" y="179"/>
      <point x="50" y="110" type="curve"/>
    </contour>
  </outline>
</glyph>
<glyph name="two.numr" format="2">
  <advance width="353"/>
  <outline>
    <contour>
      <point x="29" y="279" type="line"/>
      <point x="328" y="279" type="line"/>
      <point x="328" y="372" type="line"/>
      <point x="135" y="372" type="line"/>
      <point x="108" y="328" type="line"/>
      <point x="237" y="377"/>
      <point x="312" y="463"/>
      <point x="312" y="562" type="curve" smooth="yes"/>
      <point x="312" y="646"/>
      <point x="253" y="702"/>
      <point x="175" y="702" type="curve" smooth="yes"/>
      <point x="76" y="702"/>
      <point x="23" y="614"/>
      <point x="23" y="542" type="curve"/>
      <point x="120" y="535" type="line"/>
      <point x="123" y="561"/>
      <point x="130" y="605"/>
      <point x="173" y="605" type="curve" smooth="yes"/>
      <point x="203" y="605"/>
      <point x="213" y="583"/>
      <point x="213" y="558" type="curve" smooth="yes"/>
      <point x="213" y="474"/>
      <point x="85" y="388"/>
      <point x="29" y="351" type="curve"/>
    </contour>
  </outline>
</glyph>
<glyph name="twodotenleader.ss03" format="2">
  <advance width="438"/>
  <outline>
    <contour>
      <point x="319" y="-11" type="curve" smooth="yes"/>
      <point x="367" y="-11"/>
      <point x="404" y="27"/>
      <point x="404" y="75" type="curve" smooth="yes"/>
      <point x="404" y="123"/>
      <point x="367" y="160"/>
      <point x="319" y="160" type="curve" smooth="yes"/>
      <point x="270" y="160"/>
      <point x="234" y="123"/>
      <point x="234" y="75" type="curve" smooth="yes"/>
      <point x="234" y="27"/>
      <point x="271" y="-11"/>
    </contour>
    <contour>
      <point x="121" y="-11" type="curve" smooth="yes"/>
      <point x="170" y="-11"/>
      <point x="206" y="27"/>
      <point x="206" y="75" type="curve" smooth="yes"/>
      <point x="206" y="123"/>
      <point x="170" y="160"/>
      <point x="121" y="160" type="curve" smooth="yes"/>
      <point x="73" y="160"/>
      <point x="36" y="123"/>
      <point x="36" y="75" type="curve" smooth="yes"/>
      <point x="36" y="27"/>
      <point x="74" y="-11"/>
    </contour>
  </outline>
</glyph>
<glyph name="zero.dnom" format="2">
  <advance width="365"/>
  <outline>
    <contour>
      <point x="182" y="-6" type="curve" smooth="yes"/>
      <point x="329" y="-6"/>
      <point x="338" y="132"/>
      <point x="338" y="212" type="curve" smooth="yes"/>
      <point x="338" y="284"/>
      <point x="332" y="425"/>
      <point x="183" y="425" type="curve" smooth="yes"/>
      <point x="36" y="425"/>
      <point x="27" y="289"/>
      <point x="27" y="212" type="curve" smooth="yes"/>
      <point x="27" y="130"/>
      <point x="37" y="-6"/>
    </contour>
    <contour>
      <point x="182" y="88" type="curve" smooth="yes"/>
      <point x="133" y="88"/>
      <point x="130" y="146"/>
      <point x="130" y="209" type="curve" smooth="yes"/>
      <point x="130" y="275"/>
      <point x="133" y="329"/>
      <point x="183" y="329" type="curve" smooth="yes"/>
      <point x="233" y="329"/>
      <point x="237" y="275"/>
      <point x="237" y="209" type="curve" smooth="yes"/>
      <point x="237" y="147"/>
      <point x="233" y="88"/>
    </contour>
  </outline>
</glyph>
<glyph name="zero.numr" format="2">
  <advance width="365"/>
  <outline>
    <contour>
      <point x="182" y="273" type="curve" smooth="yes"/>
      <point x="329" y="273"/>
      <point x="338" y="411"/>
      <point x="338" y="492" type="curve" smooth="yes"/>
      <point x="338" y="563"/>
      <point x="332" y="704"/>
      <point x="183" y="704" type="curve" smooth="yes"/>
      <point x="36" y="704"/>
      <point x="27" y="566"/>
      <point x="27" y="491" type="curve" smooth="yes"/>
      <point x="27" y="409"/>
      <point x="37" y="273"/>
    </contour>
    <contour>
      <point x="182" y="367" type="curve" smooth="yes"/>
      <point x="133" y="367"/>
      <point x="130" y="425"/>
      <point x="130" y="488" type="curve" smooth="yes"/>
      <point x="130" y="553"/>
      <point x="133" y="608"/>
      <point x="183" y="608" type="curve" smooth="yes"/>
      <point x="233" y="608"/>
      <point x="237" y="553"/>
      <point x="237" y="488" type="curve" smooth="yes"/>
      <point x="237" y="426"/>
      <point x="233" y="367"/>
    </contour>
  </outline>
</glyph>
